<?xml version="1.0" encoding="UTF-8" standalone="no"?>
<svg
   xmlns:dc="http://purl.org/dc/elements/1.1/"
   xmlns:cc="http://creativecommons.org/ns#"
   xmlns:rdf="http://www.w3.org/1999/02/22-rdf-syntax-ns#"
   xmlns:svg="http://www.w3.org/2000/svg"
   xmlns="http://www.w3.org/2000/svg"
   viewBox="0 0 537.59998 144"
   height="144"
   width="537.59998"
   xml:space="preserve"
   id="svg2"
   version="1.1"><metadata
     id="metadata8"><rdf:RDF><cc:Work
         rdf:about=""><dc:format>image/svg+xml</dc:format><dc:type
           rdf:resource="http://purl.org/dc/dcmitype/StillImage" /></cc:Work></rdf:RDF></metadata><defs
     id="defs6"><clipPath
       id="clipPath144"
       clipPathUnits="userSpaceOnUse"><path
         id="path142"
         d="M 46.809615,37.25024 H 400.19976 v 63.18702 H 46.809615 Z" /></clipPath><clipPath
       id="clipPath156"
       clipPathUnits="userSpaceOnUse"><path
         id="path154"
         d="M -7,-7 H 7 V 7 H -7 Z" /></clipPath><clipPath
       id="clipPath168"
       clipPathUnits="userSpaceOnUse"><path
         id="path166"
         d="M -7,-7 H 7 V 7 H -7 Z" /></clipPath><clipPath
       id="clipPath180"
       clipPathUnits="userSpaceOnUse"><path
         id="path178"
         d="M -7,-7 H 7 V 7 H -7 Z" /></clipPath><clipPath
       id="clipPath192"
       clipPathUnits="userSpaceOnUse"><path
         id="path190"
         d="M -7,-7 H 7 V 7 H -7 Z" /></clipPath><clipPath
       id="clipPath204"
       clipPathUnits="userSpaceOnUse"><path
         id="path202"
         d="M -7,-7 H 7 V 7 H -7 Z" /></clipPath><clipPath
       id="clipPath216"
       clipPathUnits="userSpaceOnUse"><path
         id="path214"
         d="M -7,-7 H 7 V 7 H -7 Z" /></clipPath><clipPath
       id="clipPath228"
       clipPathUnits="userSpaceOnUse"><path
         id="path226"
         d="M -7,-7 H 7 V 7 H -7 Z" /></clipPath><clipPath
       id="clipPath240"
       clipPathUnits="userSpaceOnUse"><path
         id="path238"
         d="M -7,-7 H 7 V 7 H -7 Z" /></clipPath><clipPath
       id="clipPath252"
       clipPathUnits="userSpaceOnUse"><path
         id="path250"
         d="M -7,-7 H 7 V 7 H -7 Z" /></clipPath><clipPath
       id="clipPath264"
       clipPathUnits="userSpaceOnUse"><path
         id="path262"
         d="M -7,-7 H 7 V 7 H -7 Z" /></clipPath><clipPath
       id="clipPath276"
       clipPathUnits="userSpaceOnUse"><path
         id="path274"
         d="M -7,-7 H 7 V 7 H -7 Z" /></clipPath><clipPath
       id="clipPath288"
       clipPathUnits="userSpaceOnUse"><path
         id="path286"
         d="M -7,-7 H 7 V 7 H -7 Z" /></clipPath><clipPath
       id="clipPath300"
       clipPathUnits="userSpaceOnUse"><path
         id="path298"
         d="M -7,-7 H 7 V 7 H -7 Z" /></clipPath><clipPath
       id="clipPath312"
       clipPathUnits="userSpaceOnUse"><path
         id="path310"
         d="M -7,-7 H 7 V 7 H -7 Z" /></clipPath><clipPath
       id="clipPath324"
       clipPathUnits="userSpaceOnUse"><path
         id="path322"
         d="M -7,-7 H 7 V 7 H -7 Z" /></clipPath><clipPath
       id="clipPath336"
       clipPathUnits="userSpaceOnUse"><path
         id="path334"
         d="M -7,-7 H 7 V 7 H -7 Z" /></clipPath><clipPath
       id="clipPath348"
       clipPathUnits="userSpaceOnUse"><path
         id="path346"
         d="M -7,-7 H 7 V 7 H -7 Z" /></clipPath><clipPath
       id="clipPath358"
       clipPathUnits="userSpaceOnUse"><path
         id="path356"
         d="M 46.809615,37.25024 H 400.19976 v 63.18702 H 46.809615 Z" /></clipPath><clipPath
       id="clipPath370"
       clipPathUnits="userSpaceOnUse"><path
         id="path368"
         d="M -7,-7 H 7 V 7 H -7 Z" /></clipPath><clipPath
       id="clipPath382"
       clipPathUnits="userSpaceOnUse"><path
         id="path380"
         d="M -7,-7 H 7 V 7 H -7 Z" /></clipPath><clipPath
       id="clipPath394"
       clipPathUnits="userSpaceOnUse"><path
         id="path392"
         d="M -7,-7 H 7 V 7 H -7 Z" /></clipPath><clipPath
       id="clipPath406"
       clipPathUnits="userSpaceOnUse"><path
         id="path404"
         d="M -7,-7 H 7 V 7 H -7 Z" /></clipPath><clipPath
       id="clipPath418"
       clipPathUnits="userSpaceOnUse"><path
         id="path416"
         d="M -7,-7 H 7 V 7 H -7 Z" /></clipPath><clipPath
       id="clipPath430"
       clipPathUnits="userSpaceOnUse"><path
         id="path428"
         d="M -7,-7 H 7 V 7 H -7 Z" /></clipPath><clipPath
       id="clipPath442"
       clipPathUnits="userSpaceOnUse"><path
         id="path440"
         d="M -7,-7 H 7 V 7 H -7 Z" /></clipPath><clipPath
       id="clipPath454"
       clipPathUnits="userSpaceOnUse"><path
         id="path452"
         d="M -7,-7 H 7 V 7 H -7 Z" /></clipPath><clipPath
       id="clipPath466"
       clipPathUnits="userSpaceOnUse"><path
         id="path464"
         d="M -7,-7 H 7 V 7 H -7 Z" /></clipPath><clipPath
       id="clipPath478"
       clipPathUnits="userSpaceOnUse"><path
         id="path476"
         d="M -7,-7 H 7 V 7 H -7 Z" /></clipPath><clipPath
       id="clipPath490"
       clipPathUnits="userSpaceOnUse"><path
         id="path488"
         d="M -7,-7 H 7 V 7 H -7 Z" /></clipPath><clipPath
       id="clipPath502"
       clipPathUnits="userSpaceOnUse"><path
         id="path500"
         d="M -7,-7 H 7 V 7 H -7 Z" /></clipPath><clipPath
       id="clipPath514"
       clipPathUnits="userSpaceOnUse"><path
         id="path512"
         d="M -7,-7 H 7 V 7 H -7 Z" /></clipPath><clipPath
       id="clipPath526"
       clipPathUnits="userSpaceOnUse"><path
         id="path524"
         d="M -7,-7 H 7 V 7 H -7 Z" /></clipPath><clipPath
       id="clipPath538"
       clipPathUnits="userSpaceOnUse"><path
         id="path536"
         d="M -7,-7 H 7 V 7 H -7 Z" /></clipPath><clipPath
       id="clipPath550"
       clipPathUnits="userSpaceOnUse"><path
         id="path548"
         d="M -7,-7 H 7 V 7 H -7 Z" /></clipPath><clipPath
       id="clipPath562"
       clipPathUnits="userSpaceOnUse"><path
         id="path560"
         d="M -7,-7 H 7 V 7 H -7 Z" /></clipPath></defs><g
     transform="matrix(1.3333333,0,0,-1.3333333,0,144)"
     id="g10"><path
       id="path12"
       style="fill:#ffffff;fill-opacity:1;fill-rule:nonzero;stroke:none"
       d="M 0,0 H 403.2 V 108 H 0 Z" /><path
       id="path14"
       style="fill:#ffffff;fill-opacity:1;fill-rule:nonzero;stroke:none"
       d="M 46.809615,37.25024 H 400.19976 v 63.18702 H 46.809615 Z" /><path
       id="path16"
       style="fill:#000000;fill-opacity:1;fill-rule:nonzero;stroke:#000000;stroke-width:0.80000001;stroke-linecap:butt;stroke-linejoin:round;stroke-miterlimit:10;stroke-dasharray:none;stroke-opacity:1"
       d="m 62.872803,37.25024 v -3.5" /><g
       transform="translate(55.232178,21.12524)"
       id="g18"><text
         id="text22"
         style="font-variant:normal;font-weight:normal;font-size:12px;font-family:'DejaVu Sans';-inkscape-font-specification:DejaVuSans;writing-mode:lr-tb;fill:#000000;fill-opacity:1;fill-rule:nonzero;stroke:none"
         transform="scale(1,-1)"><tspan
           id="tspan20"
           y="0"
           x="0 7.632">15</tspan></text>
</g><path
       id="path24"
       style="fill:#000000;fill-opacity:1;fill-rule:nonzero;stroke:#000000;stroke-width:0.80000001;stroke-linecap:butt;stroke-linejoin:round;stroke-miterlimit:10;stroke-dasharray:none;stroke-opacity:1"
       d="m 103.03077,37.25024 v -3.5" /><g
       transform="translate(95.390149,21.12524)"
       id="g26"><text
         id="text30"
         style="font-variant:normal;font-weight:normal;font-size:12px;font-family:'DejaVu Sans';-inkscape-font-specification:DejaVuSans;writing-mode:lr-tb;fill:#000000;fill-opacity:1;fill-rule:nonzero;stroke:none"
         transform="scale(1,-1)"><tspan
           id="tspan28"
           y="0"
           x="0 7.632">17</tspan></text>
</g><path
       id="path32"
       style="fill:#000000;fill-opacity:1;fill-rule:nonzero;stroke:#000000;stroke-width:0.80000001;stroke-linecap:butt;stroke-linejoin:round;stroke-miterlimit:10;stroke-dasharray:none;stroke-opacity:1"
       d="m 143.18874,37.25024 v -3.5" /><g
       transform="translate(135.54812,21.12524)"
       id="g34"><text
         id="text38"
         style="font-variant:normal;font-weight:normal;font-size:12px;font-family:'DejaVu Sans';-inkscape-font-specification:DejaVuSans;writing-mode:lr-tb;fill:#000000;fill-opacity:1;fill-rule:nonzero;stroke:none"
         transform="scale(1,-1)"><tspan
           id="tspan36"
           y="0"
           x="0 7.632">19</tspan></text>
</g><path
       id="path40"
       style="fill:#000000;fill-opacity:1;fill-rule:nonzero;stroke:#000000;stroke-width:0.80000001;stroke-linecap:butt;stroke-linejoin:round;stroke-miterlimit:10;stroke-dasharray:none;stroke-opacity:1"
       d="m 183.34672,37.25024 v -3.5" /><g
       transform="translate(175.70609,21.12524)"
       id="g42"><text
         id="text46"
         style="font-variant:normal;font-weight:normal;font-size:12px;font-family:'DejaVu Sans';-inkscape-font-specification:DejaVuSans;writing-mode:lr-tb;fill:#000000;fill-opacity:1;fill-rule:nonzero;stroke:none"
         transform="scale(1,-1)"><tspan
           id="tspan44"
           y="0"
           x="0 7.632">21</tspan></text>
</g><path
       id="path48"
       style="fill:#000000;fill-opacity:1;fill-rule:nonzero;stroke:#000000;stroke-width:0.80000001;stroke-linecap:butt;stroke-linejoin:round;stroke-miterlimit:10;stroke-dasharray:none;stroke-opacity:1"
       d="m 223.50469,37.25024 v -3.5" /><g
       transform="translate(215.86406,21.12524)"
       id="g50"><text
         id="text54"
         style="font-variant:normal;font-weight:normal;font-size:12px;font-family:'DejaVu Sans';-inkscape-font-specification:DejaVuSans;writing-mode:lr-tb;fill:#000000;fill-opacity:1;fill-rule:nonzero;stroke:none"
         transform="scale(1,-1)"><tspan
           id="tspan52"
           y="0"
           x="0 7.632">23</tspan></text>
</g><path
       id="path56"
       style="fill:#000000;fill-opacity:1;fill-rule:nonzero;stroke:#000000;stroke-width:0.80000001;stroke-linecap:butt;stroke-linejoin:round;stroke-miterlimit:10;stroke-dasharray:none;stroke-opacity:1"
       d="m 263.66266,37.25024 v -3.5" /><g
       transform="translate(256.02203,21.12524)"
       id="g58"><text
         id="text62"
         style="font-variant:normal;font-weight:normal;font-size:12px;font-family:'DejaVu Sans';-inkscape-font-specification:DejaVuSans;writing-mode:lr-tb;fill:#000000;fill-opacity:1;fill-rule:nonzero;stroke:none"
         transform="scale(1,-1)"><tspan
           id="tspan60"
           y="0"
           x="0 7.632">25</tspan></text>
</g><path
       id="path64"
       style="fill:#000000;fill-opacity:1;fill-rule:nonzero;stroke:#000000;stroke-width:0.80000001;stroke-linecap:butt;stroke-linejoin:round;stroke-miterlimit:10;stroke-dasharray:none;stroke-opacity:1"
       d="m 303.82063,37.25024 v -3.5" /><g
       transform="translate(296.18,21.12524)"
       id="g66"><text
         id="text70"
         style="font-variant:normal;font-weight:normal;font-size:12px;font-family:'DejaVu Sans';-inkscape-font-specification:DejaVuSans;writing-mode:lr-tb;fill:#000000;fill-opacity:1;fill-rule:nonzero;stroke:none"
         transform="scale(1,-1)"><tspan
           id="tspan68"
           y="0"
           x="0 7.632">27</tspan></text>
</g><path
       id="path72"
       style="fill:#000000;fill-opacity:1;fill-rule:nonzero;stroke:#000000;stroke-width:0.80000001;stroke-linecap:butt;stroke-linejoin:round;stroke-miterlimit:10;stroke-dasharray:none;stroke-opacity:1"
       d="m 343.9786,37.25024 v -3.5" /><g
       transform="translate(336.33798,21.12524)"
       id="g74"><text
         id="text78"
         style="font-variant:normal;font-weight:normal;font-size:12px;font-family:'DejaVu Sans';-inkscape-font-specification:DejaVuSans;writing-mode:lr-tb;fill:#000000;fill-opacity:1;fill-rule:nonzero;stroke:none"
         transform="scale(1,-1)"><tspan
           id="tspan76"
           y="0"
           x="0 7.632">29</tspan></text>
</g><path
       id="path80"
       style="fill:#000000;fill-opacity:1;fill-rule:nonzero;stroke:#000000;stroke-width:0.80000001;stroke-linecap:butt;stroke-linejoin:round;stroke-miterlimit:10;stroke-dasharray:none;stroke-opacity:1"
       d="m 384.13657,37.25024 v -3.5" /><g
       transform="translate(376.49595,21.12524)"
       id="g82"><text
         id="text86"
         style="font-variant:normal;font-weight:normal;font-size:12px;font-family:'DejaVu Sans';-inkscape-font-specification:DejaVuSans;writing-mode:lr-tb;fill:#000000;fill-opacity:1;fill-rule:nonzero;stroke:none"
         transform="scale(1,-1)"><tspan
           id="tspan84"
           y="0"
           x="0 7.632">31</tspan></text>
</g><g
       transform="translate(146.44219,5.50024)"
       id="g88"><text
         id="text92"
         style="font-variant:normal;font-weight:bold;font-size:12px;font-family:'DejaVu Sans';-inkscape-font-specification:DejaVuSans-Bold;writing-mode:lr-tb;fill:#000000;fill-opacity:1;fill-rule:nonzero;stroke:none"
         transform="scale(1,-1)"><tspan
           id="tspan90"
           y="0"
           x="0 10.044 18.587999 31.091999 39.683998 47.82 53.736 57.911999 66.155998 71.375999 75.552002 79.667999 87.912003 95.028 103.128 107.244 111.42 120.012 128.556 137.14799 141.26401 147">Number of local qubits</tspan></text>
</g><path
       id="path94"
       style="fill:#000000;fill-opacity:1;fill-rule:nonzero;stroke:#000000;stroke-width:0.80000001;stroke-linecap:butt;stroke-linejoin:round;stroke-miterlimit:10;stroke-dasharray:none;stroke-opacity:1"
       d="m 46.809615,37.25024 h -3.5" /><g
       transform="translate(32.16899,32.68774)"
       id="g96"><text
         id="text100"
         style="font-variant:normal;font-weight:normal;font-size:12px;font-family:'DejaVu Sans';-inkscape-font-specification:DejaVuSans;writing-mode:lr-tb;fill:#000000;fill-opacity:1;fill-rule:nonzero;stroke:none"
         transform="scale(1,-1)"><tspan
           id="tspan98"
           y="0"
           x="0">0</tspan></text>
</g><path
       id="path102"
       style="fill:#000000;fill-opacity:1;fill-rule:nonzero;stroke:#000000;stroke-width:0.80000001;stroke-linecap:butt;stroke-linejoin:round;stroke-miterlimit:10;stroke-dasharray:none;stroke-opacity:1"
       d="m 46.809615,58.31258 h -3.5" /><g
       transform="translate(32.16899,53.75008)"
       id="g104"><text
         id="text108"
         style="font-variant:normal;font-weight:normal;font-size:12px;font-family:'DejaVu Sans';-inkscape-font-specification:DejaVuSans;writing-mode:lr-tb;fill:#000000;fill-opacity:1;fill-rule:nonzero;stroke:none"
         transform="scale(1,-1)"><tspan
           id="tspan106"
           y="0"
           x="0">2</tspan></text>
</g><path
       id="path110"
       style="fill:#000000;fill-opacity:1;fill-rule:nonzero;stroke:#000000;stroke-width:0.80000001;stroke-linecap:butt;stroke-linejoin:round;stroke-miterlimit:10;stroke-dasharray:none;stroke-opacity:1"
       d="m 46.809615,79.37492 h -3.5" /><g
       transform="translate(32.16899,74.81242)"
       id="g112"><text
         id="text116"
         style="font-variant:normal;font-weight:normal;font-size:12px;font-family:'DejaVu Sans';-inkscape-font-specification:DejaVuSans;writing-mode:lr-tb;fill:#000000;fill-opacity:1;fill-rule:nonzero;stroke:none"
         transform="scale(1,-1)"><tspan
           id="tspan114"
           y="0"
           x="0">4</tspan></text>
</g><path
       id="path118"
       style="fill:#000000;fill-opacity:1;fill-rule:nonzero;stroke:#000000;stroke-width:0.80000001;stroke-linecap:butt;stroke-linejoin:round;stroke-miterlimit:10;stroke-dasharray:none;stroke-opacity:1"
       d="m 46.809615,100.43726 h -3.5" /><g
       transform="translate(32.16899,95.87476)"
       id="g120"><text
         id="text124"
         style="font-variant:normal;font-weight:normal;font-size:12px;font-family:'DejaVu Sans';-inkscape-font-specification:DejaVuSans;writing-mode:lr-tb;fill:#000000;fill-opacity:1;fill-rule:nonzero;stroke:none"
         transform="scale(1,-1)"><tspan
           id="tspan122"
           y="0"
           x="0">6</tspan></text>
</g><g
       transform="rotate(90,-12.480349,24.605589)"
       id="g126"><text
         id="text130"
         style="font-variant:normal;font-weight:bold;font-size:12px;font-family:'DejaVu Sans';-inkscape-font-specification:DejaVuSans-Bold;writing-mode:lr-tb;fill:#000000;fill-opacity:1;fill-rule:nonzero;stroke:none"
         transform="scale(1,-1)"><tspan
           id="tspan128"
           y="0"
           x="0 9.8520002 17.988001 26.232 38.736 46.872002 54.972">Geomean</tspan></text>
</g><g
       transform="rotate(90,-3.4975363,29.072776)"
       id="g132"><text
         id="text136"
         style="font-variant:normal;font-weight:bold;font-size:12px;font-family:'DejaVu Sans';-inkscape-font-specification:DejaVuSans-Bold;writing-mode:lr-tb;fill:#000000;fill-opacity:1;fill-rule:nonzero;stroke:none"
         transform="scale(1,-1)"><tspan
           id="tspan134"
           y="0"
           x="0 8.2440004 13.464 17.639999 27.695999 34.835999 40.571999 48.672001 57.264 65.400002">of #stages</tspan></text>
</g><g
       id="g138"><g
         clip-path="url(#clipPath144)"
         id="g140"><path
           id="path146"
           style="fill:none;stroke:#1f77b4;stroke-width:1.5;stroke-linecap:square;stroke-linejoin:round;stroke-miterlimit:10;stroke-dasharray:none;stroke-opacity:1"
           d="M 62.872803,78.563825 82.951789,66.137369 103.03077,65.177614 h 20.07899 l 20.07898,-0.356457 h 20.07899 20.07899 20.07898 20.07899 l 20.07898,-0.415732 h 20.07899 20.07898 20.07899 l 20.07898,-0.902212 h 20.07899 l 20.07899,-1.473466 20.07898,-14.248337" /><g
           transform="translate(62.872803,78.563825)"
           id="g148"><g
             id="g150"><g
               clip-path="url(#clipPath156)"
               id="g152"><path
                 id="path158"
                 style="fill:#1f77b4;fill-opacity:1;fill-rule:nonzero;stroke:#1f77b4;stroke-width:1;stroke-linecap:butt;stroke-linejoin:round;stroke-miterlimit:10;stroke-dasharray:none;stroke-opacity:1"
                 d="m 0,-2 c 0.530406,0 1.03916,0.210733 1.414214,0.585786 C 1.789267,-1.03916 2,-0.530406 2,0 2,0.530406 1.789267,1.03916 1.414214,1.414214 1.03916,1.789267 0.530406,2 0,2 -0.530406,2 -1.03916,1.789267 -1.414214,1.414214 -1.789267,1.03916 -2,0.530406 -2,0 -2,-0.530406 -1.789267,-1.03916 -1.414214,-1.414214 -1.03916,-1.789267 -0.530406,-2 0,-2 Z" /></g></g><g
             transform="translate(20.078986,-12.426456)"
             id="g160"><g
               id="g162"><g
                 clip-path="url(#clipPath168)"
                 id="g164"><path
                   id="path170"
                   style="fill:#1f77b4;fill-opacity:1;fill-rule:nonzero;stroke:#1f77b4;stroke-width:1;stroke-linecap:butt;stroke-linejoin:round;stroke-miterlimit:10;stroke-dasharray:none;stroke-opacity:1"
                   d="m 0,-2 c 0.530406,0 1.03916,0.210733 1.414214,0.585786 C 1.789267,-1.03916 2,-0.530406 2,0 2,0.530406 1.789267,1.03916 1.414214,1.414214 1.03916,1.789267 0.530406,2 0,2 -0.530406,2 -1.03916,1.789267 -1.414214,1.414214 -1.789267,1.03916 -2,0.530406 -2,0 -2,-0.530406 -1.789267,-1.03916 -1.414214,-1.414214 -1.03916,-1.789267 -0.530406,-2 0,-2 Z" /></g></g><g
               transform="translate(20.078986,-0.95975447)"
               id="g172"><g
                 id="g174"><g
                   clip-path="url(#clipPath180)"
                   id="g176"><path
                     id="path182"
                     style="fill:#1f77b4;fill-opacity:1;fill-rule:nonzero;stroke:#1f77b4;stroke-width:1;stroke-linecap:butt;stroke-linejoin:round;stroke-miterlimit:10;stroke-dasharray:none;stroke-opacity:1"
                     d="m 0,-2 c 0.530406,0 1.03916,0.210733 1.414214,0.585786 C 1.789267,-1.03916 2,-0.530406 2,0 2,0.530406 1.789267,1.03916 1.414214,1.414214 1.03916,1.789267 0.530406,2 0,2 -0.530406,2 -1.03916,1.789267 -1.414214,1.414214 -1.789267,1.03916 -2,0.530406 -2,0 -2,-0.530406 -1.789267,-1.03916 -1.414214,-1.414214 -1.03916,-1.789267 -0.530406,-2 0,-2 Z" /></g></g><g
                 transform="translate(20.078986)"
                 id="g184"><g
                   id="g186"><g
                     clip-path="url(#clipPath192)"
                     id="g188"><path
                       id="path194"
                       style="fill:#1f77b4;fill-opacity:1;fill-rule:nonzero;stroke:#1f77b4;stroke-width:1;stroke-linecap:butt;stroke-linejoin:round;stroke-miterlimit:10;stroke-dasharray:none;stroke-opacity:1"
                       d="m 0,-2 c 0.530406,0 1.03916,0.210733 1.414214,0.585786 C 1.789267,-1.03916 2,-0.530406 2,0 2,0.530406 1.789267,1.03916 1.414214,1.414214 1.03916,1.789267 0.530406,2 0,2 -0.530406,2 -1.03916,1.789267 -1.414214,1.414214 -1.789267,1.03916 -2,0.530406 -2,0 -2,-0.530406 -1.789267,-1.03916 -1.414214,-1.414214 -1.03916,-1.789267 -0.530406,-2 0,-2 Z" /></g></g><g
                   transform="translate(20.078986,-0.35645757)"
                   id="g196"><g
                     id="g198"><g
                       clip-path="url(#clipPath204)"
                       id="g200"><path
                         id="path206"
                         style="fill:#1f77b4;fill-opacity:1;fill-rule:nonzero;stroke:#1f77b4;stroke-width:1;stroke-linecap:butt;stroke-linejoin:round;stroke-miterlimit:10;stroke-dasharray:none;stroke-opacity:1"
                         d="m 0,-2 c 0.530406,0 1.03916,0.210733 1.414214,0.585786 C 1.789267,-1.03916 2,-0.530406 2,0 2,0.530406 1.789267,1.03916 1.414214,1.414214 1.03916,1.789267 0.530406,2 0,2 -0.530406,2 -1.03916,1.789267 -1.414214,1.414214 -1.789267,1.03916 -2,0.530406 -2,0 -2,-0.530406 -1.789267,-1.03916 -1.414214,-1.414214 -1.03916,-1.789267 -0.530406,-2 0,-2 Z" /></g></g><g
                     transform="translate(20.078986)"
                     id="g208"><g
                       id="g210"><g
                         clip-path="url(#clipPath216)"
                         id="g212"><path
                           id="path218"
                           style="fill:#1f77b4;fill-opacity:1;fill-rule:nonzero;stroke:#1f77b4;stroke-width:1;stroke-linecap:butt;stroke-linejoin:round;stroke-miterlimit:10;stroke-dasharray:none;stroke-opacity:1"
                           d="m 0,-2 c 0.530406,0 1.03916,0.210733 1.414214,0.585786 C 1.789267,-1.03916 2,-0.530406 2,0 2,0.530406 1.789267,1.03916 1.414214,1.414214 1.03916,1.789267 0.530406,2 0,2 -0.530406,2 -1.03916,1.789267 -1.414214,1.414214 -1.789267,1.03916 -2,0.530406 -2,0 -2,-0.530406 -1.789267,-1.03916 -1.414214,-1.414214 -1.03916,-1.789267 -0.530406,-2 0,-2 Z" /></g></g><g
                       transform="translate(20.078986)"
                       id="g220"><g
                         id="g222"><g
                           clip-path="url(#clipPath228)"
                           id="g224"><path
                             id="path230"
                             style="fill:#1f77b4;fill-opacity:1;fill-rule:nonzero;stroke:#1f77b4;stroke-width:1;stroke-linecap:butt;stroke-linejoin:round;stroke-miterlimit:10;stroke-dasharray:none;stroke-opacity:1"
                             d="m 0,-2 c 0.530406,0 1.03916,0.210733 1.414214,0.585786 C 1.789267,-1.03916 2,-0.530406 2,0 2,0.530406 1.789267,1.03916 1.414214,1.414214 1.03916,1.789267 0.530406,2 0,2 -0.530406,2 -1.03916,1.789267 -1.414214,1.414214 -1.789267,1.03916 -2,0.530406 -2,0 -2,-0.530406 -1.789267,-1.03916 -1.414214,-1.414214 -1.03916,-1.789267 -0.530406,-2 0,-2 Z" /></g></g><g
                         transform="translate(20.078986)"
                         id="g232"><g
                           id="g234"><g
                             clip-path="url(#clipPath240)"
                             id="g236"><path
                               id="path242"
                               style="fill:#1f77b4;fill-opacity:1;fill-rule:nonzero;stroke:#1f77b4;stroke-width:1;stroke-linecap:butt;stroke-linejoin:round;stroke-miterlimit:10;stroke-dasharray:none;stroke-opacity:1"
                               d="m 0,-2 c 0.530406,0 1.03916,0.210733 1.414214,0.585786 C 1.789267,-1.03916 2,-0.530406 2,0 2,0.530406 1.789267,1.03916 1.414214,1.414214 1.03916,1.789267 0.530406,2 0,2 -0.530406,2 -1.03916,1.789267 -1.414214,1.414214 -1.789267,1.03916 -2,0.530406 -2,0 -2,-0.530406 -1.789267,-1.03916 -1.414214,-1.414214 -1.03916,-1.789267 -0.530406,-2 0,-2 Z" /></g></g><g
                           transform="translate(20.078986)"
                           id="g244"><g
                             id="g246"><g
                               clip-path="url(#clipPath252)"
                               id="g248"><path
                                 id="path254"
                                 style="fill:#1f77b4;fill-opacity:1;fill-rule:nonzero;stroke:#1f77b4;stroke-width:1;stroke-linecap:butt;stroke-linejoin:round;stroke-miterlimit:10;stroke-dasharray:none;stroke-opacity:1"
                                 d="m 0,-2 c 0.530406,0 1.03916,0.210733 1.414214,0.585786 C 1.789267,-1.03916 2,-0.530406 2,0 2,0.530406 1.789267,1.03916 1.414214,1.414214 1.03916,1.789267 0.530406,2 0,2 -0.530406,2 -1.03916,1.789267 -1.414214,1.414214 -1.789267,1.03916 -2,0.530406 -2,0 -2,-0.530406 -1.789267,-1.03916 -1.414214,-1.414214 -1.03916,-1.789267 -0.530406,-2 0,-2 Z" /></g></g><g
                             transform="translate(20.078986,-0.41573151)"
                             id="g256"><g
                               id="g258"><g
                                 clip-path="url(#clipPath264)"
                                 id="g260"><path
                                   id="path266"
                                   style="fill:#1f77b4;fill-opacity:1;fill-rule:nonzero;stroke:#1f77b4;stroke-width:1;stroke-linecap:butt;stroke-linejoin:round;stroke-miterlimit:10;stroke-dasharray:none;stroke-opacity:1"
                                   d="m 0,-2 c 0.530406,0 1.03916,0.210733 1.414214,0.585786 C 1.789267,-1.03916 2,-0.530406 2,0 2,0.530406 1.789267,1.03916 1.414214,1.414214 1.03916,1.789267 0.530406,2 0,2 -0.530406,2 -1.03916,1.789267 -1.414214,1.414214 -1.789267,1.03916 -2,0.530406 -2,0 -2,-0.530406 -1.789267,-1.03916 -1.414214,-1.414214 -1.03916,-1.789267 -0.530406,-2 0,-2 Z" /></g></g><g
                               transform="translate(20.078986)"
                               id="g268"><g
                                 id="g270"><g
                                   clip-path="url(#clipPath276)"
                                   id="g272"><path
                                   id="path278"
                                   style="fill:#1f77b4;fill-opacity:1;fill-rule:nonzero;stroke:#1f77b4;stroke-width:1;stroke-linecap:butt;stroke-linejoin:round;stroke-miterlimit:10;stroke-dasharray:none;stroke-opacity:1"
                                   d="m 0,-2 c 0.530406,0 1.03916,0.210733 1.414214,0.585786 C 1.789267,-1.03916 2,-0.530406 2,0 2,0.530406 1.789267,1.03916 1.414214,1.414214 1.03916,1.789267 0.530406,2 0,2 -0.530406,2 -1.03916,1.789267 -1.414214,1.414214 -1.789267,1.03916 -2,0.530406 -2,0 -2,-0.530406 -1.789267,-1.03916 -1.414214,-1.414214 -1.03916,-1.789267 -0.530406,-2 0,-2 Z" /></g></g><g
                                 transform="translate(20.078986)"
                                 id="g280"><g
                                   id="g282"><g
                                   clip-path="url(#clipPath288)"
                                   id="g284"><path
                                   id="path290"
                                   style="fill:#1f77b4;fill-opacity:1;fill-rule:nonzero;stroke:#1f77b4;stroke-width:1;stroke-linecap:butt;stroke-linejoin:round;stroke-miterlimit:10;stroke-dasharray:none;stroke-opacity:1"
                                   d="m 0,-2 c 0.530406,0 1.03916,0.210733 1.414214,0.585786 C 1.789267,-1.03916 2,-0.530406 2,0 2,0.530406 1.789267,1.03916 1.414214,1.414214 1.03916,1.789267 0.530406,2 0,2 -0.530406,2 -1.03916,1.789267 -1.414214,1.414214 -1.789267,1.03916 -2,0.530406 -2,0 -2,-0.530406 -1.789267,-1.03916 -1.414214,-1.414214 -1.03916,-1.789267 -0.530406,-2 0,-2 Z" /></g></g><g
                                   transform="translate(20.078986)"
                                   id="g292"><g
                                   id="g294"><g
                                   clip-path="url(#clipPath300)"
                                   id="g296"><path
                                   id="path302"
                                   style="fill:#1f77b4;fill-opacity:1;fill-rule:nonzero;stroke:#1f77b4;stroke-width:1;stroke-linecap:butt;stroke-linejoin:round;stroke-miterlimit:10;stroke-dasharray:none;stroke-opacity:1"
                                   d="m 0,-2 c 0.530406,0 1.03916,0.210733 1.414214,0.585786 C 1.789267,-1.03916 2,-0.530406 2,0 2,0.530406 1.789267,1.03916 1.414214,1.414214 1.03916,1.789267 0.530406,2 0,2 -0.530406,2 -1.03916,1.789267 -1.414214,1.414214 -1.789267,1.03916 -2,0.530406 -2,0 -2,-0.530406 -1.789267,-1.03916 -1.414214,-1.414214 -1.03916,-1.789267 -0.530406,-2 0,-2 Z" /></g></g><g
                                   transform="translate(20.078986,-0.90221186)"
                                   id="g304"><g
                                   id="g306"><g
                                   clip-path="url(#clipPath312)"
                                   id="g308"><path
                                   id="path314"
                                   style="fill:#1f77b4;fill-opacity:1;fill-rule:nonzero;stroke:#1f77b4;stroke-width:1;stroke-linecap:butt;stroke-linejoin:round;stroke-miterlimit:10;stroke-dasharray:none;stroke-opacity:1"
                                   d="m 0,-2 c 0.530406,0 1.03916,0.210733 1.414214,0.585786 C 1.789267,-1.03916 2,-0.530406 2,0 2,0.530406 1.789267,1.03916 1.414214,1.414214 1.03916,1.789267 0.530406,2 0,2 -0.530406,2 -1.03916,1.789267 -1.414214,1.414214 -1.789267,1.03916 -2,0.530406 -2,0 -2,-0.530406 -1.789267,-1.03916 -1.414214,-1.414214 -1.03916,-1.789267 -0.530406,-2 0,-2 Z" /></g></g><g
                                   transform="translate(20.078986)"
                                   id="g316"><g
                                   id="g318"><g
                                   clip-path="url(#clipPath324)"
                                   id="g320"><path
                                   id="path326"
                                   style="fill:#1f77b4;fill-opacity:1;fill-rule:nonzero;stroke:#1f77b4;stroke-width:1;stroke-linecap:butt;stroke-linejoin:round;stroke-miterlimit:10;stroke-dasharray:none;stroke-opacity:1"
                                   d="m 0,-2 c 0.530406,0 1.03916,0.210733 1.414214,0.585786 C 1.789267,-1.03916 2,-0.530406 2,0 2,0.530406 1.789267,1.03916 1.414214,1.414214 1.03916,1.789267 0.530406,2 0,2 -0.530406,2 -1.03916,1.789267 -1.414214,1.414214 -1.789267,1.03916 -2,0.530406 -2,0 -2,-0.530406 -1.789267,-1.03916 -1.414214,-1.414214 -1.03916,-1.789267 -0.530406,-2 0,-2 Z" /></g></g><g
                                   transform="translate(20.078986,-1.4734662)"
                                   id="g328"><g
                                   id="g330"><g
                                   clip-path="url(#clipPath336)"
                                   id="g332"><path
                                   id="path338"
                                   style="fill:#1f77b4;fill-opacity:1;fill-rule:nonzero;stroke:#1f77b4;stroke-width:1;stroke-linecap:butt;stroke-linejoin:round;stroke-miterlimit:10;stroke-dasharray:none;stroke-opacity:1"
                                   d="m 0,-2 c 0.530406,0 1.03916,0.210733 1.414214,0.585786 C 1.789267,-1.03916 2,-0.530406 2,0 2,0.530406 1.789267,1.03916 1.414214,1.414214 1.03916,1.789267 0.530406,2 0,2 -0.530406,2 -1.03916,1.789267 -1.414214,1.414214 -1.789267,1.03916 -2,0.530406 -2,0 -2,-0.530406 -1.789267,-1.03916 -1.414214,-1.414214 -1.03916,-1.789267 -0.530406,-2 0,-2 Z" /></g></g><g
                                   transform="translate(20.078986,-14.248337)"
                                   id="g340"><g
                                   id="g342"><g
                                   clip-path="url(#clipPath348)"
                                   id="g344"><path
                                   id="path350"
                                   style="fill:#1f77b4;fill-opacity:1;fill-rule:nonzero;stroke:#1f77b4;stroke-width:1;stroke-linecap:butt;stroke-linejoin:round;stroke-miterlimit:10;stroke-dasharray:none;stroke-opacity:1"
                                   d="m 0,-2 c 0.530406,0 1.03916,0.210733 1.414214,0.585786 C 1.789267,-1.03916 2,-0.530406 2,0 2,0.530406 1.789267,1.03916 1.414214,1.414214 1.03916,1.789267 0.530406,2 0,2 -0.530406,2 -1.03916,1.789267 -1.414214,1.414214 -1.789267,1.03916 -2,0.530406 -2,0 -2,-0.530406 -1.789267,-1.03916 -1.414214,-1.414214 -1.03916,-1.789267 -0.530406,-2 0,-2 Z" /></g></g></g></g></g></g></g></g></g></g></g></g></g></g></g></g></g></g></g></g></g><g
       id="g352"><g
         clip-path="url(#clipPath358)"
         id="g354"><path
           id="path360"
           style="fill:none;stroke:#ff7f0e;stroke-width:1.5;stroke-linecap:square;stroke-linejoin:round;stroke-miterlimit:10;stroke-dasharray:none;stroke-opacity:1"
           d="M 62.872803,90.224202 82.951789,68.906855 h 20.078981 20.07899 20.07898 20.07899 20.07899 20.07898 20.07899 l 20.07898,0.768091 h 20.07899 20.07898 20.07899 20.07898 20.07899 l 20.07899,-3.819725 20.07898,-18.073811" /><g
           transform="translate(62.872803,90.224202)"
           id="g362"><g
             id="g364"><g
               clip-path="url(#clipPath370)"
               id="g366"><path
                 id="path372"
                 style="fill:#ff7f0e;fill-opacity:1;fill-rule:nonzero;stroke:#ff7f0e;stroke-width:1;stroke-linecap:butt;stroke-linejoin:round;stroke-miterlimit:10;stroke-dasharray:none;stroke-opacity:1"
                 d="M -2,-2 2,2 M -2,2 2,-2" /></g></g><g
             transform="translate(20.078986,-21.317347)"
             id="g374"><g
               id="g376"><g
                 clip-path="url(#clipPath382)"
                 id="g378"><path
                   id="path384"
                   style="fill:#ff7f0e;fill-opacity:1;fill-rule:nonzero;stroke:#ff7f0e;stroke-width:1;stroke-linecap:butt;stroke-linejoin:round;stroke-miterlimit:10;stroke-dasharray:none;stroke-opacity:1"
                   d="M -2,-2 2,2 M -2,2 2,-2" /></g></g><g
               transform="translate(20.078986)"
               id="g386"><g
                 id="g388"><g
                   clip-path="url(#clipPath394)"
                   id="g390"><path
                     id="path396"
                     style="fill:#ff7f0e;fill-opacity:1;fill-rule:nonzero;stroke:#ff7f0e;stroke-width:1;stroke-linecap:butt;stroke-linejoin:round;stroke-miterlimit:10;stroke-dasharray:none;stroke-opacity:1"
                     d="M -2,-2 2,2 M -2,2 2,-2" /></g></g><g
                 transform="translate(20.078986)"
                 id="g398"><g
                   id="g400"><g
                     clip-path="url(#clipPath406)"
                     id="g402"><path
                       id="path408"
                       style="fill:#ff7f0e;fill-opacity:1;fill-rule:nonzero;stroke:#ff7f0e;stroke-width:1;stroke-linecap:butt;stroke-linejoin:round;stroke-miterlimit:10;stroke-dasharray:none;stroke-opacity:1"
                       d="M -2,-2 2,2 M -2,2 2,-2" /></g></g><g
                   transform="translate(20.078986)"
                   id="g410"><g
                     id="g412"><g
                       clip-path="url(#clipPath418)"
                       id="g414"><path
                         id="path420"
                         style="fill:#ff7f0e;fill-opacity:1;fill-rule:nonzero;stroke:#ff7f0e;stroke-width:1;stroke-linecap:butt;stroke-linejoin:round;stroke-miterlimit:10;stroke-dasharray:none;stroke-opacity:1"
                         d="M -2,-2 2,2 M -2,2 2,-2" /></g></g><g
                     transform="translate(20.078986)"
                     id="g422"><g
                       id="g424"><g
                         clip-path="url(#clipPath430)"
                         id="g426"><path
                           id="path432"
                           style="fill:#ff7f0e;fill-opacity:1;fill-rule:nonzero;stroke:#ff7f0e;stroke-width:1;stroke-linecap:butt;stroke-linejoin:round;stroke-miterlimit:10;stroke-dasharray:none;stroke-opacity:1"
                           d="M -2,-2 2,2 M -2,2 2,-2" /></g></g><g
                       transform="translate(20.078986)"
                       id="g434"><g
                         id="g436"><g
                           clip-path="url(#clipPath442)"
                           id="g438"><path
                             id="path444"
                             style="fill:#ff7f0e;fill-opacity:1;fill-rule:nonzero;stroke:#ff7f0e;stroke-width:1;stroke-linecap:butt;stroke-linejoin:round;stroke-miterlimit:10;stroke-dasharray:none;stroke-opacity:1"
                             d="M -2,-2 2,2 M -2,2 2,-2" /></g></g><g
                         transform="translate(20.078986)"
                         id="g446"><g
                           id="g448"><g
                             clip-path="url(#clipPath454)"
                             id="g450"><path
                               id="path456"
                               style="fill:#ff7f0e;fill-opacity:1;fill-rule:nonzero;stroke:#ff7f0e;stroke-width:1;stroke-linecap:butt;stroke-linejoin:round;stroke-miterlimit:10;stroke-dasharray:none;stroke-opacity:1"
                               d="M -2,-2 2,2 M -2,2 2,-2" /></g></g><g
                           transform="translate(20.078986)"
                           id="g458"><g
                             id="g460"><g
                               clip-path="url(#clipPath466)"
                               id="g462"><path
                                 id="path468"
                                 style="fill:#ff7f0e;fill-opacity:1;fill-rule:nonzero;stroke:#ff7f0e;stroke-width:1;stroke-linecap:butt;stroke-linejoin:round;stroke-miterlimit:10;stroke-dasharray:none;stroke-opacity:1"
                                 d="M -2,-2 2,2 M -2,2 2,-2" /></g></g><g
                             transform="translate(20.078986,0.76809018)"
                             id="g470"><g
                               id="g472"><g
                                 clip-path="url(#clipPath478)"
                                 id="g474"><path
                                   id="path480"
                                   style="fill:#ff7f0e;fill-opacity:1;fill-rule:nonzero;stroke:#ff7f0e;stroke-width:1;stroke-linecap:butt;stroke-linejoin:round;stroke-miterlimit:10;stroke-dasharray:none;stroke-opacity:1"
                                   d="M -2,-2 2,2 M -2,2 2,-2" /></g></g><g
                               transform="translate(20.078986)"
                               id="g482"><g
                                 id="g484"><g
                                   clip-path="url(#clipPath490)"
                                   id="g486"><path
                                   id="path492"
                                   style="fill:#ff7f0e;fill-opacity:1;fill-rule:nonzero;stroke:#ff7f0e;stroke-width:1;stroke-linecap:butt;stroke-linejoin:round;stroke-miterlimit:10;stroke-dasharray:none;stroke-opacity:1"
                                   d="M -2,-2 2,2 M -2,2 2,-2" /></g></g><g
                                 transform="translate(20.078986)"
                                 id="g494"><g
                                   id="g496"><g
                                   clip-path="url(#clipPath502)"
                                   id="g498"><path
                                   id="path504"
                                   style="fill:#ff7f0e;fill-opacity:1;fill-rule:nonzero;stroke:#ff7f0e;stroke-width:1;stroke-linecap:butt;stroke-linejoin:round;stroke-miterlimit:10;stroke-dasharray:none;stroke-opacity:1"
                                   d="M -2,-2 2,2 M -2,2 2,-2" /></g></g><g
                                   transform="translate(20.078986)"
                                   id="g506"><g
                                   id="g508"><g
                                   clip-path="url(#clipPath514)"
                                   id="g510"><path
                                   id="path516"
                                   style="fill:#ff7f0e;fill-opacity:1;fill-rule:nonzero;stroke:#ff7f0e;stroke-width:1;stroke-linecap:butt;stroke-linejoin:round;stroke-miterlimit:10;stroke-dasharray:none;stroke-opacity:1"
                                   d="M -2,-2 2,2 M -2,2 2,-2" /></g></g><g
                                   transform="translate(20.078986)"
                                   id="g518"><g
                                   id="g520"><g
                                   clip-path="url(#clipPath526)"
                                   id="g522"><path
                                   id="path528"
                                   style="fill:#ff7f0e;fill-opacity:1;fill-rule:nonzero;stroke:#ff7f0e;stroke-width:1;stroke-linecap:butt;stroke-linejoin:round;stroke-miterlimit:10;stroke-dasharray:none;stroke-opacity:1"
                                   d="M -2,-2 2,2 M -2,2 2,-2" /></g></g><g
                                   transform="translate(20.078986)"
                                   id="g530"><g
                                   id="g532"><g
                                   clip-path="url(#clipPath538)"
                                   id="g534"><path
                                   id="path540"
                                   style="fill:#ff7f0e;fill-opacity:1;fill-rule:nonzero;stroke:#ff7f0e;stroke-width:1;stroke-linecap:butt;stroke-linejoin:round;stroke-miterlimit:10;stroke-dasharray:none;stroke-opacity:1"
                                   d="M -2,-2 2,2 M -2,2 2,-2" /></g></g><g
                                   transform="translate(20.078986,-3.8197245)"
                                   id="g542"><g
                                   id="g544"><g
                                   clip-path="url(#clipPath550)"
                                   id="g546"><path
                                   id="path552"
                                   style="fill:#ff7f0e;fill-opacity:1;fill-rule:nonzero;stroke:#ff7f0e;stroke-width:1;stroke-linecap:butt;stroke-linejoin:round;stroke-miterlimit:10;stroke-dasharray:none;stroke-opacity:1"
                                   d="M -2,-2 2,2 M -2,2 2,-2" /></g></g><g
                                   transform="translate(20.078986,-18.073811)"
                                   id="g554"><g
                                   id="g556"><g
                                   clip-path="url(#clipPath562)"
                                   id="g558"><path
                                   id="path564"
                                   style="fill:#ff7f0e;fill-opacity:1;fill-rule:nonzero;stroke:#ff7f0e;stroke-width:1;stroke-linecap:butt;stroke-linejoin:round;stroke-miterlimit:10;stroke-dasharray:none;stroke-opacity:1"
                                   d="M -2,-2 2,2 M -2,2 2,-2" /></g></g></g></g></g></g></g></g></g></g></g></g></g></g></g></g></g></g></g></g></g><g
       id="g566"><path
         id="path568"
         style="fill:none;stroke:#000000;stroke-width:0.80000001;stroke-linecap:square;stroke-linejoin:miter;stroke-miterlimit:10;stroke-dasharray:none;stroke-opacity:1"
         d="m 46.809615,37.25024 v 63.18702" /><path
         id="path570"
         style="fill:none;stroke:#000000;stroke-width:0.80000001;stroke-linecap:square;stroke-linejoin:miter;stroke-miterlimit:10;stroke-dasharray:none;stroke-opacity:1"
         d="m 400.19976,37.25024 v 63.18702" /><path
         id="path572"
         style="fill:none;stroke:#000000;stroke-width:0.80000001;stroke-linecap:square;stroke-linejoin:miter;stroke-miterlimit:10;stroke-dasharray:none;stroke-opacity:1"
         d="M 46.809615,37.25024 H 400.19976" /><path
         id="path574"
         style="fill:none;stroke:#000000;stroke-width:0.80000001;stroke-linecap:square;stroke-linejoin:miter;stroke-miterlimit:10;stroke-dasharray:none;stroke-opacity:1"
         d="M 46.809615,100.43726 H 400.19976" /><path
         id="path576"
         style="fill:#ffffff;fill-opacity:0.8;fill-rule:nonzero;stroke:#cccccc;stroke-width:1;stroke-linecap:butt;stroke-linejoin:miter;stroke-miterlimit:10;stroke-dasharray:none;stroke-opacity:0.8"
         d="m 226.28413,73.21226 h 165.51563 c 1.6,0 2.4,0.8 2.4,2.4 v 16.425 c 0,1.6 -0.8,2.4 -2.4,2.4 H 226.28413 c -1.6,0 -2.39999,-0.8 -2.39999,-2.4 v -16.425 c 0,-1.6 0.79999,-2.4 2.39999,-2.4 z" /><path
         id="path578"
         style="fill:none;stroke:#1f77b4;stroke-width:1.5;stroke-linecap:square;stroke-linejoin:round;stroke-miterlimit:10;stroke-dasharray:none;stroke-opacity:1"
         d="m 228.68413,84.71226 h 12 12" /><path
         id="path580"
         style="fill:#1f77b4;fill-opacity:1;fill-rule:nonzero;stroke:#1f77b4;stroke-width:1;stroke-linecap:butt;stroke-linejoin:round;stroke-miterlimit:10;stroke-dasharray:none;stroke-opacity:1"
         d="m 240.68413,82.71226 c 0.53041,0 1.03916,0.210733 1.41422,0.585786 0.37505,0.375054 0.58578,0.883808 0.58578,1.414214 0,0.530406 -0.21073,1.03916 -0.58578,1.414214 -0.37506,0.375053 -0.88381,0.585786 -1.41422,0.585786 -0.5304,0 -1.03916,-0.210733 -1.41421,-0.585786 -0.37505,-0.375054 -0.58579,-0.883808 -0.58579,-1.414214 0,-0.530406 0.21074,-1.03916 0.58579,-1.414214 0.37505,-0.375053 0.88381,-0.585786 1.41421,-0.585786 z" /><g
         transform="translate(262.28413,80.51226)"
         id="g582"><text
           id="text586"
           style="font-variant:normal;font-weight:normal;font-size:12px;font-family:'DejaVu Sans';-inkscape-font-specification:DejaVuSans;writing-mode:lr-tb;fill:#000000;fill-opacity:1;fill-rule:nonzero;stroke:none"
           transform="scale(1,-1)"><tspan
             id="tspan584"
             y="0"
             x="0 8.0048752 12.708875 16.044874 23.400875">Atlas</tspan></text>
</g><path
         id="path588"
         style="fill:none;stroke:#ff7f0e;stroke-width:1.5;stroke-linecap:square;stroke-linejoin:round;stroke-miterlimit:10;stroke-dasharray:none;stroke-opacity:1"
         d="m 315.87789,84.71226 h 12 12" /><path
         id="path590"
         style="fill:#ff7f0e;fill-opacity:1;fill-rule:nonzero;stroke:#ff7f0e;stroke-width:1;stroke-linecap:butt;stroke-linejoin:round;stroke-miterlimit:10;stroke-dasharray:none;stroke-opacity:1"
         d="m 325.87789,82.71226 4,4 m -4,0 4,-4" /><g
         transform="translate(349.47789,80.51226)"
         id="g592"><text
           id="text596"
           style="font-variant:normal;font-weight:normal;font-size:12px;font-family:'DejaVu Sans';-inkscape-font-specification:DejaVuSans;writing-mode:lr-tb;fill:#000000;fill-opacity:1;fill-rule:nonzero;stroke:none"
           transform="scale(1,-1)"><tspan
             id="tspan594"
             y="0"
             x="0 7.6199999 15.228 22.836 32.279999">SnuQS</tspan></text>
</g></g></g></svg>