<?xml version="1.0" encoding="UTF-8" standalone="no"?>
<svg
   xmlns:dc="http://purl.org/dc/elements/1.1/"
   xmlns:cc="http://creativecommons.org/ns#"
   xmlns:rdf="http://www.w3.org/1999/02/22-rdf-syntax-ns#"
   xmlns:svg="http://www.w3.org/2000/svg"
   xmlns="http://www.w3.org/2000/svg"
   viewBox="0 0 513.90283 302.47217"
   height="302.47217"
   width="513.90283"
   xml:space="preserve"
   id="svg2"
   version="1.1"><metadata
     id="metadata8"><rdf:RDF><cc:Work
         rdf:about=""><dc:format>image/svg+xml</dc:format><dc:type
           rdf:resource="http://purl.org/dc/dcmitype/StillImage" /></cc:Work></rdf:RDF></metadata><defs
     id="defs6"><clipPath
       id="clipPath200"
       clipPathUnits="userSpaceOnUse"><path
         id="path198"
         d="m 39.3875,58.878125 h 334.8 V 219.65412 h -334.8 z" /></clipPath><clipPath
       id="clipPath212"
       clipPathUnits="userSpaceOnUse"><path
         id="path210"
         d="M -9,-9 H 9 V 9 H -9 Z" /></clipPath><clipPath
       id="clipPath224"
       clipPathUnits="userSpaceOnUse"><path
         id="path222"
         d="M -9,-9 H 9 V 9 H -9 Z" /></clipPath><clipPath
       id="clipPath236"
       clipPathUnits="userSpaceOnUse"><path
         id="path234"
         d="M -9,-9 H 9 V 9 H -9 Z" /></clipPath><clipPath
       id="clipPath248"
       clipPathUnits="userSpaceOnUse"><path
         id="path246"
         d="M -9,-9 H 9 V 9 H -9 Z" /></clipPath><clipPath
       id="clipPath260"
       clipPathUnits="userSpaceOnUse"><path
         id="path258"
         d="M -9,-9 H 9 V 9 H -9 Z" /></clipPath><clipPath
       id="clipPath272"
       clipPathUnits="userSpaceOnUse"><path
         id="path270"
         d="M -9,-9 H 9 V 9 H -9 Z" /></clipPath><clipPath
       id="clipPath284"
       clipPathUnits="userSpaceOnUse"><path
         id="path282"
         d="M -9,-9 H 9 V 9 H -9 Z" /></clipPath><clipPath
       id="clipPath296"
       clipPathUnits="userSpaceOnUse"><path
         id="path294"
         d="M -9,-9 H 9 V 9 H -9 Z" /></clipPath><clipPath
       id="clipPath308"
       clipPathUnits="userSpaceOnUse"><path
         id="path306"
         d="M -9,-9 H 9 V 9 H -9 Z" /></clipPath><clipPath
       id="clipPath318"
       clipPathUnits="userSpaceOnUse"><path
         id="path316"
         d="m 39.3875,58.878125 h 334.8 V 219.65412 h -334.8 z" /></clipPath><clipPath
       id="clipPath330"
       clipPathUnits="userSpaceOnUse"><path
         id="path328"
         d="M -7,-7 H 7 V 7 H -7 Z" /></clipPath><clipPath
       id="clipPath342"
       clipPathUnits="userSpaceOnUse"><path
         id="path340"
         d="M -7,-7 H 7 V 7 H -7 Z" /></clipPath><clipPath
       id="clipPath354"
       clipPathUnits="userSpaceOnUse"><path
         id="path352"
         d="M -7,-7 H 7 V 7 H -7 Z" /></clipPath><clipPath
       id="clipPath366"
       clipPathUnits="userSpaceOnUse"><path
         id="path364"
         d="M -7,-7 H 7 V 7 H -7 Z" /></clipPath><clipPath
       id="clipPath378"
       clipPathUnits="userSpaceOnUse"><path
         id="path376"
         d="M -7,-7 H 7 V 7 H -7 Z" /></clipPath><clipPath
       id="clipPath390"
       clipPathUnits="userSpaceOnUse"><path
         id="path388"
         d="M -7,-7 H 7 V 7 H -7 Z" /></clipPath><clipPath
       id="clipPath402"
       clipPathUnits="userSpaceOnUse"><path
         id="path400"
         d="M -7,-7 H 7 V 7 H -7 Z" /></clipPath><clipPath
       id="clipPath414"
       clipPathUnits="userSpaceOnUse"><path
         id="path412"
         d="M -7,-7 H 7 V 7 H -7 Z" /></clipPath><clipPath
       id="clipPath426"
       clipPathUnits="userSpaceOnUse"><path
         id="path424"
         d="M -7,-7 H 7 V 7 H -7 Z" /></clipPath><clipPath
       id="clipPath436"
       clipPathUnits="userSpaceOnUse"><path
         id="path434"
         d="m 39.3875,58.878125 h 334.8 V 219.65412 h -334.8 z" /></clipPath><clipPath
       id="clipPath448"
       clipPathUnits="userSpaceOnUse"><path
         id="path446"
         d="M -9,-9 H 9 V 9 H -9 Z" /></clipPath><clipPath
       id="clipPath460"
       clipPathUnits="userSpaceOnUse"><path
         id="path458"
         d="M -9,-9 H 9 V 9 H -9 Z" /></clipPath><clipPath
       id="clipPath472"
       clipPathUnits="userSpaceOnUse"><path
         id="path470"
         d="M -9,-9 H 9 V 9 H -9 Z" /></clipPath><clipPath
       id="clipPath484"
       clipPathUnits="userSpaceOnUse"><path
         id="path482"
         d="M -9,-9 H 9 V 9 H -9 Z" /></clipPath><clipPath
       id="clipPath496"
       clipPathUnits="userSpaceOnUse"><path
         id="path494"
         d="M -9,-9 H 9 V 9 H -9 Z" /></clipPath><clipPath
       id="clipPath508"
       clipPathUnits="userSpaceOnUse"><path
         id="path506"
         d="M -9,-9 H 9 V 9 H -9 Z" /></clipPath><clipPath
       id="clipPath520"
       clipPathUnits="userSpaceOnUse"><path
         id="path518"
         d="M -9,-9 H 9 V 9 H -9 Z" /></clipPath><clipPath
       id="clipPath532"
       clipPathUnits="userSpaceOnUse"><path
         id="path530"
         d="M -9,-9 H 9 V 9 H -9 Z" /></clipPath><clipPath
       id="clipPath544"
       clipPathUnits="userSpaceOnUse"><path
         id="path542"
         d="M -9,-9 H 9 V 9 H -9 Z" /></clipPath><clipPath
       id="clipPath554"
       clipPathUnits="userSpaceOnUse"><path
         id="path552"
         d="m 39.3875,58.878125 h 334.8 V 219.65412 h -334.8 z" /></clipPath><clipPath
       id="clipPath566"
       clipPathUnits="userSpaceOnUse"><path
         id="path564"
         d="M -8.8042261,-8.236068 H 8.8042261 V 9 H -8.8042261 Z" /></clipPath></defs><g
     transform="matrix(1.3333333,0,0,-1.3333333,0,302.47217)"
     id="g10"><path
       id="path12"
       style="fill:#ffffff;fill-opacity:1;fill-rule:nonzero;stroke:none"
       d="M 0,0 H 385.42713 V 226.85412 H 0 Z" /><path
       id="path14"
       style="fill:#ffffff;fill-opacity:1;fill-rule:nonzero;stroke:none"
       d="m 39.3875,58.878125 h 334.8 V 219.65412 h -334.8 z" /><path
       id="path16"
       style="fill:#000000;fill-opacity:1;fill-rule:nonzero;stroke:#000000;stroke-width:0.80000001;stroke-linecap:butt;stroke-linejoin:round;stroke-miterlimit:10;stroke-dasharray:none;stroke-opacity:1"
       d="m 54.605682,58.878125 v -3.5" /><g
       transform="translate(50.472869,42.003125)"
       id="g18"><text
         id="text22"
         style="font-variant:normal;font-weight:normal;font-size:13px;font-family:'DejaVu Sans';-inkscape-font-specification:DejaVuSans;writing-mode:lr-tb;fill:#000000;fill-opacity:1;fill-rule:nonzero;stroke:none"
         transform="scale(1,-1)"><tspan
           id="tspan20"
           y="0"
           x="0">1</tspan></text>
</g><g
       transform="translate(35.347869,27.45)"
       id="g24"><text
         id="text28"
         style="font-variant:normal;font-weight:normal;font-size:13px;font-family:'DejaVu Sans';-inkscape-font-specification:DejaVuSans;writing-mode:lr-tb;fill:#000000;fill-opacity:1;fill-rule:nonzero;stroke:none"
         transform="scale(1,-1)"><tspan
           id="tspan26"
           y="0"
           x="0 5.0700002 13.338 17.472 25.74 33.436001">(0.8x)</tspan></text>
</g><path
       id="path30"
       style="fill:#000000;fill-opacity:1;fill-rule:nonzero;stroke:#000000;stroke-width:0.80000001;stroke-linecap:butt;stroke-linejoin:round;stroke-miterlimit:10;stroke-dasharray:none;stroke-opacity:1"
       d="m 92.651136,58.878125 v -3.5" /><g
       transform="translate(88.518324,42.003125)"
       id="g32"><text
         id="text36"
         style="font-variant:normal;font-weight:normal;font-size:13px;font-family:'DejaVu Sans';-inkscape-font-specification:DejaVuSans;writing-mode:lr-tb;fill:#000000;fill-opacity:1;fill-rule:nonzero;stroke:none"
         transform="scale(1,-1)"><tspan
           id="tspan34"
           y="0"
           x="0">2</tspan></text>
</g><g
       transform="translate(73.393324,27.45)"
       id="g38"><text
         id="text42"
         style="font-variant:normal;font-weight:normal;font-size:13px;font-family:'DejaVu Sans';-inkscape-font-specification:DejaVuSans;writing-mode:lr-tb;fill:#000000;fill-opacity:1;fill-rule:nonzero;stroke:none"
         transform="scale(1,-1)"><tspan
           id="tspan40"
           y="0"
           x="0 5.0700002 13.338 17.472 25.74 33.436001">(1.0x)</tspan></text>
</g><path
       id="path44"
       style="fill:#000000;fill-opacity:1;fill-rule:nonzero;stroke:#000000;stroke-width:0.80000001;stroke-linecap:butt;stroke-linejoin:round;stroke-miterlimit:10;stroke-dasharray:none;stroke-opacity:1"
       d="m 130.69659,58.878125 v -3.5" /><g
       transform="translate(126.56378,42.003125)"
       id="g46"><text
         id="text50"
         style="font-variant:normal;font-weight:normal;font-size:13px;font-family:'DejaVu Sans';-inkscape-font-specification:DejaVuSans;writing-mode:lr-tb;fill:#000000;fill-opacity:1;fill-rule:nonzero;stroke:none"
         transform="scale(1,-1)"><tspan
           id="tspan48"
           y="0"
           x="0">4</tspan></text>
</g><g
       transform="translate(111.43878,27.45)"
       id="g52"><text
         id="text56"
         style="font-variant:normal;font-weight:normal;font-size:13px;font-family:'DejaVu Sans';-inkscape-font-specification:DejaVuSans;writing-mode:lr-tb;fill:#000000;fill-opacity:1;fill-rule:nonzero;stroke:none"
         transform="scale(1,-1)"><tspan
           id="tspan54"
           y="0"
           x="0 5.0700002 13.338 17.472 25.74 33.436001">(2.2x)</tspan></text>
</g><path
       id="path58"
       style="fill:#000000;fill-opacity:1;fill-rule:nonzero;stroke:#000000;stroke-width:0.80000001;stroke-linecap:butt;stroke-linejoin:round;stroke-miterlimit:10;stroke-dasharray:none;stroke-opacity:1"
       d="m 168.74204,58.878125 v -3.5" /><g
       transform="translate(164.60923,42.003125)"
       id="g60"><text
         id="text64"
         style="font-variant:normal;font-weight:normal;font-size:13px;font-family:'DejaVu Sans';-inkscape-font-specification:DejaVuSans;writing-mode:lr-tb;fill:#000000;fill-opacity:1;fill-rule:nonzero;stroke:none"
         transform="scale(1,-1)"><tspan
           id="tspan62"
           y="0"
           x="0">8</tspan></text>
</g><g
       transform="translate(149.48423,27.45)"
       id="g66"><text
         id="text70"
         style="font-variant:normal;font-weight:normal;font-size:13px;font-family:'DejaVu Sans';-inkscape-font-specification:DejaVuSans;writing-mode:lr-tb;fill:#000000;fill-opacity:1;fill-rule:nonzero;stroke:none"
         transform="scale(1,-1)"><tspan
           id="tspan68"
           y="0"
           x="0 5.0700002 13.338 17.472 25.74 33.436001">(1.3x)</tspan></text>
</g><path
       id="path72"
       style="fill:#000000;fill-opacity:1;fill-rule:nonzero;stroke:#000000;stroke-width:0.80000001;stroke-linecap:butt;stroke-linejoin:round;stroke-miterlimit:10;stroke-dasharray:none;stroke-opacity:1"
       d="m 206.7875,58.878125 v -3.5" /><g
       transform="translate(198.52187,42.003125)"
       id="g74"><text
         id="text78"
         style="font-variant:normal;font-weight:normal;font-size:13px;font-family:'DejaVu Sans';-inkscape-font-specification:DejaVuSans;writing-mode:lr-tb;fill:#000000;fill-opacity:1;fill-rule:nonzero;stroke:none"
         transform="scale(1,-1)"><tspan
           id="tspan76"
           y="0"
           x="0 8.2679996">16</tspan></text>
</g><g
       transform="translate(187.52969,27.45)"
       id="g80"><text
         id="text84"
         style="font-variant:normal;font-weight:normal;font-size:13px;font-family:'DejaVu Sans';-inkscape-font-specification:DejaVuSans;writing-mode:lr-tb;fill:#000000;fill-opacity:1;fill-rule:nonzero;stroke:none"
         transform="scale(1,-1)"><tspan
           id="tspan82"
           y="0"
           x="0 5.0700002 13.338 17.472 25.74 33.436001">(1.3x)</tspan></text>
</g><path
       id="path86"
       style="fill:#000000;fill-opacity:1;fill-rule:nonzero;stroke:#000000;stroke-width:0.80000001;stroke-linecap:butt;stroke-linejoin:round;stroke-miterlimit:10;stroke-dasharray:none;stroke-opacity:1"
       d="m 244.83295,58.878125 v -3.5" /><g
       transform="translate(236.56733,42.003125)"
       id="g88"><text
         id="text92"
         style="font-variant:normal;font-weight:normal;font-size:13px;font-family:'DejaVu Sans';-inkscape-font-specification:DejaVuSans;writing-mode:lr-tb;fill:#000000;fill-opacity:1;fill-rule:nonzero;stroke:none"
         transform="scale(1,-1)"><tspan
           id="tspan90"
           y="0"
           x="0 8.2679996">32</tspan></text>
</g><g
       transform="translate(225.57514,27.45)"
       id="g94"><text
         id="text98"
         style="font-variant:normal;font-weight:normal;font-size:13px;font-family:'DejaVu Sans';-inkscape-font-specification:DejaVuSans;writing-mode:lr-tb;fill:#000000;fill-opacity:1;fill-rule:nonzero;stroke:none"
         transform="scale(1,-1)"><tspan
           id="tspan96"
           y="0"
           x="0 5.0700002 13.338 17.472 25.74 33.436001">(2.5x)</tspan></text>
</g><path
       id="path100"
       style="fill:#000000;fill-opacity:1;fill-rule:nonzero;stroke:#000000;stroke-width:0.80000001;stroke-linecap:butt;stroke-linejoin:round;stroke-miterlimit:10;stroke-dasharray:none;stroke-opacity:1"
       d="m 282.87841,58.878125 v -3.5" /><g
       transform="translate(274.61278,42.003125)"
       id="g102"><text
         id="text106"
         style="font-variant:normal;font-weight:normal;font-size:13px;font-family:'DejaVu Sans';-inkscape-font-specification:DejaVuSans;writing-mode:lr-tb;fill:#000000;fill-opacity:1;fill-rule:nonzero;stroke:none"
         transform="scale(1,-1)"><tspan
           id="tspan104"
           y="0"
           x="0 8.2679996">64</tspan></text>
</g><g
       transform="translate(263.6206,27.45)"
       id="g108"><text
         id="text112"
         style="font-variant:normal;font-weight:normal;font-size:13px;font-family:'DejaVu Sans';-inkscape-font-specification:DejaVuSans;writing-mode:lr-tb;fill:#000000;fill-opacity:1;fill-rule:nonzero;stroke:none"
         transform="scale(1,-1)"><tspan
           id="tspan110"
           y="0"
           x="0 5.0700002 13.338 17.472 25.74 33.436001">(4.9x)</tspan></text>
</g><path
       id="path114"
       style="fill:#000000;fill-opacity:1;fill-rule:nonzero;stroke:#000000;stroke-width:0.80000001;stroke-linecap:butt;stroke-linejoin:round;stroke-miterlimit:10;stroke-dasharray:none;stroke-opacity:1"
       d="m 320.92386,58.878125 v -3.5" /><g
       transform="translate(308.52543,42.003125)"
       id="g116"><text
         id="text120"
         style="font-variant:normal;font-weight:normal;font-size:13px;font-family:'DejaVu Sans';-inkscape-font-specification:DejaVuSans;writing-mode:lr-tb;fill:#000000;fill-opacity:1;fill-rule:nonzero;stroke:none"
         transform="scale(1,-1)"><tspan
           id="tspan118"
           y="0"
           x="0 8.2679996 16.535999">128</tspan></text>
</g><g
       transform="translate(301.66605,27.45)"
       id="g122"><text
         id="text126"
         style="font-variant:normal;font-weight:normal;font-size:13px;font-family:'DejaVu Sans';-inkscape-font-specification:DejaVuSans;writing-mode:lr-tb;fill:#000000;fill-opacity:1;fill-rule:nonzero;stroke:none"
         transform="scale(1,-1)"><tspan
           id="tspan124"
           y="0"
           x="0 5.0700002 13.338 17.472 25.74 33.436001">(5.8x)</tspan></text>
</g><path
       id="path128"
       style="fill:#000000;fill-opacity:1;fill-rule:nonzero;stroke:#000000;stroke-width:0.80000001;stroke-linecap:butt;stroke-linejoin:round;stroke-miterlimit:10;stroke-dasharray:none;stroke-opacity:1"
       d="m 358.96932,58.878125 v -3.5" /><g
       transform="translate(346.57088,42.003125)"
       id="g130"><text
         id="text134"
         style="font-variant:normal;font-weight:normal;font-size:13px;font-family:'DejaVu Sans';-inkscape-font-specification:DejaVuSans;writing-mode:lr-tb;fill:#000000;fill-opacity:1;fill-rule:nonzero;stroke:none"
         transform="scale(1,-1)"><tspan
           id="tspan132"
           y="0"
           x="0 8.2679996 16.535999">256</tspan></text>
</g><g
       transform="translate(339.71151,27.45)"
       id="g136"><text
         id="text140"
         style="font-variant:normal;font-weight:normal;font-size:13px;font-family:'DejaVu Sans';-inkscape-font-specification:DejaVuSans;writing-mode:lr-tb;fill:#000000;fill-opacity:1;fill-rule:nonzero;stroke:none"
         transform="scale(1,-1)"><tspan
           id="tspan138"
           y="0"
           x="0 5.0700002 13.338 17.472 25.74 33.436001">(4.9x)</tspan></text>
</g><g
       transform="translate(67.201563,10.10625)"
       id="g142"><text
         id="text146"
         style="font-variant:normal;font-weight:bold;font-size:14px;font-family:'DejaVu Sans';-inkscape-font-specification:DejaVuSans-Bold;writing-mode:lr-tb;fill:#000000;fill-opacity:1;fill-rule:nonzero;stroke:none"
         transform="scale(1,-1)"><tspan
           id="tspan144"
           y="0"
           x="0 11.718 21.686001 36.273998 46.298 55.790001 62.692001 67.564003 77.181999 83.272003 88.143997 99.638 109.9 121.268 129.59801 134.47 139.58 144.452 154.532 164.556 174.048 183.53999 193.564 203.532 213.556 218.42799 228.04601 234.136 239.008 249.84399 256.53601 261.33801 270.78799">Number of GPUs / Speedup of Atlas</tspan></text>
</g><path
       id="path148"
       style="fill:#000000;fill-opacity:1;fill-rule:nonzero;stroke:#000000;stroke-width:0.80000001;stroke-linecap:butt;stroke-linejoin:round;stroke-miterlimit:10;stroke-dasharray:none;stroke-opacity:1"
       d="m 39.3875,58.878125 h -3.5" /><g
       transform="translate(24.746875,54.315625)"
       id="g150"><text
         id="text154"
         style="font-variant:normal;font-weight:normal;font-size:12px;font-family:'DejaVu Sans';-inkscape-font-specification:DejaVuSans;writing-mode:lr-tb;fill:#000000;fill-opacity:1;fill-rule:nonzero;stroke:none"
         transform="scale(1,-1)"><tspan
           id="tspan152"
           y="0"
           x="0">0</tspan></text>
</g><path
       id="path156"
       style="fill:#000000;fill-opacity:1;fill-rule:nonzero;stroke:#000000;stroke-width:0.80000001;stroke-linecap:butt;stroke-linejoin:round;stroke-miterlimit:10;stroke-dasharray:none;stroke-opacity:1"
       d="m 39.3875,91.662051 h -3.5" /><g
       transform="translate(24.746875,87.099551)"
       id="g158"><text
         id="text162"
         style="font-variant:normal;font-weight:normal;font-size:12px;font-family:'DejaVu Sans';-inkscape-font-specification:DejaVuSans;writing-mode:lr-tb;fill:#000000;fill-opacity:1;fill-rule:nonzero;stroke:none"
         transform="scale(1,-1)"><tspan
           id="tspan160"
           y="0"
           x="0">2</tspan></text>
</g><path
       id="path164"
       style="fill:#000000;fill-opacity:1;fill-rule:nonzero;stroke:#000000;stroke-width:0.80000001;stroke-linecap:butt;stroke-linejoin:round;stroke-miterlimit:10;stroke-dasharray:none;stroke-opacity:1"
       d="m 39.3875,124.44598 h -3.5" /><g
       transform="translate(24.746875,119.88348)"
       id="g166"><text
         id="text170"
         style="font-variant:normal;font-weight:normal;font-size:12px;font-family:'DejaVu Sans';-inkscape-font-specification:DejaVuSans;writing-mode:lr-tb;fill:#000000;fill-opacity:1;fill-rule:nonzero;stroke:none"
         transform="scale(1,-1)"><tspan
           id="tspan168"
           y="0"
           x="0">4</tspan></text>
</g><path
       id="path172"
       style="fill:#000000;fill-opacity:1;fill-rule:nonzero;stroke:#000000;stroke-width:0.80000001;stroke-linecap:butt;stroke-linejoin:round;stroke-miterlimit:10;stroke-dasharray:none;stroke-opacity:1"
       d="m 39.3875,157.2299 h -3.5" /><g
       transform="translate(24.746875,152.6674)"
       id="g174"><text
         id="text178"
         style="font-variant:normal;font-weight:normal;font-size:12px;font-family:'DejaVu Sans';-inkscape-font-specification:DejaVuSans;writing-mode:lr-tb;fill:#000000;fill-opacity:1;fill-rule:nonzero;stroke:none"
         transform="scale(1,-1)"><tspan
           id="tspan176"
           y="0"
           x="0">6</tspan></text>
</g><path
       id="path180"
       style="fill:#000000;fill-opacity:1;fill-rule:nonzero;stroke:#000000;stroke-width:0.80000001;stroke-linecap:butt;stroke-linejoin:round;stroke-miterlimit:10;stroke-dasharray:none;stroke-opacity:1"
       d="m 39.3875,190.01383 h -3.5" /><g
       transform="translate(24.746875,185.45133)"
       id="g182"><text
         id="text186"
         style="font-variant:normal;font-weight:normal;font-size:12px;font-family:'DejaVu Sans';-inkscape-font-specification:DejaVuSans;writing-mode:lr-tb;fill:#000000;fill-opacity:1;fill-rule:nonzero;stroke:none"
         transform="scale(1,-1)"><tspan
           id="tspan184"
           y="0"
           x="0">8</tspan></text>
</g><g
       transform="rotate(90,-22.189312,40.029938)"
       id="g188"><text
         id="text192"
         style="font-variant:normal;font-weight:bold;font-size:14px;font-family:'DejaVu Sans';-inkscape-font-specification:DejaVuSans-Bold;writing-mode:lr-tb;fill:#000000;fill-opacity:1;fill-rule:nonzero;stroke:none"
         transform="scale(1,-1)"><tspan
           id="tspan190"
           y="0"
           x="0 10.08 14.882 29.469999 39.438 44.240002 53.689999 60.382 65.183998 74.802002 84.769997 89.641998 99.190002 103.992 118.58 128.07201 132.944 139.342 147.672">Simulation Time (s)</tspan></text>
</g><g
       id="g194"><g
         clip-path="url(#clipPath200)"
         id="g196"><path
           id="path202"
           style="fill:none;stroke:#1f77b4;stroke-width:1.5;stroke-linecap:square;stroke-linejoin:round;stroke-miterlimit:10;stroke-dasharray:none;stroke-opacity:1"
           d="m 54.605682,60.886304 38.045454,1.061216 38.045454,0.15474 38.04545,2.234717 38.04546,1.586086 38.04545,0.708952 38.04546,0.546672 38.04545,0.695183 38.04546,2.942358" /><g
           transform="translate(54.605682,60.886304)"
           id="g204"><g
             id="g206"><g
               clip-path="url(#clipPath212)"
               id="g208"><path
                 id="path214"
                 style="fill:#1f77b4;fill-opacity:1;fill-rule:nonzero;stroke:#1f77b4;stroke-width:1;stroke-linecap:butt;stroke-linejoin:round;stroke-miterlimit:10;stroke-dasharray:none;stroke-opacity:1"
                 d="M -4,-4 4,4 M -4,4 4,-4" /></g></g><g
             transform="translate(38.045455,1.0612157)"
             id="g216"><g
               id="g218"><g
                 clip-path="url(#clipPath224)"
                 id="g220"><path
                   id="path226"
                   style="fill:#1f77b4;fill-opacity:1;fill-rule:nonzero;stroke:#1f77b4;stroke-width:1;stroke-linecap:butt;stroke-linejoin:round;stroke-miterlimit:10;stroke-dasharray:none;stroke-opacity:1"
                   d="M -4,-4 4,4 M -4,4 4,-4" /></g></g><g
               transform="translate(38.045455,0.15474013)"
               id="g228"><g
                 id="g230"><g
                   clip-path="url(#clipPath236)"
                   id="g232"><path
                     id="path238"
                     style="fill:#1f77b4;fill-opacity:1;fill-rule:nonzero;stroke:#1f77b4;stroke-width:1;stroke-linecap:butt;stroke-linejoin:round;stroke-miterlimit:10;stroke-dasharray:none;stroke-opacity:1"
                     d="M -4,-4 4,4 M -4,4 4,-4" /></g></g><g
                 transform="translate(38.045455,2.2347163)"
                 id="g240"><g
                   id="g242"><g
                     clip-path="url(#clipPath248)"
                     id="g244"><path
                       id="path250"
                       style="fill:#1f77b4;fill-opacity:1;fill-rule:nonzero;stroke:#1f77b4;stroke-width:1;stroke-linecap:butt;stroke-linejoin:round;stroke-miterlimit:10;stroke-dasharray:none;stroke-opacity:1"
                       d="M -4,-4 4,4 M -4,4 4,-4" /></g></g><g
                   transform="translate(38.045455,1.5860864)"
                   id="g252"><g
                     id="g254"><g
                       clip-path="url(#clipPath260)"
                       id="g256"><path
                         id="path262"
                         style="fill:#1f77b4;fill-opacity:1;fill-rule:nonzero;stroke:#1f77b4;stroke-width:1;stroke-linecap:butt;stroke-linejoin:round;stroke-miterlimit:10;stroke-dasharray:none;stroke-opacity:1"
                         d="M -4,-4 4,4 M -4,4 4,-4" /></g></g><g
                     transform="translate(38.045455,0.70895241)"
                     id="g264"><g
                       id="g266"><g
                         clip-path="url(#clipPath272)"
                         id="g268"><path
                           id="path274"
                           style="fill:#1f77b4;fill-opacity:1;fill-rule:nonzero;stroke:#1f77b4;stroke-width:1;stroke-linecap:butt;stroke-linejoin:round;stroke-miterlimit:10;stroke-dasharray:none;stroke-opacity:1"
                           d="M -4,-4 4,4 M -4,4 4,-4" /></g></g><g
                       transform="translate(38.045455,0.54667197)"
                       id="g276"><g
                         id="g278"><g
                           clip-path="url(#clipPath284)"
                           id="g280"><path
                             id="path286"
                             style="fill:#1f77b4;fill-opacity:1;fill-rule:nonzero;stroke:#1f77b4;stroke-width:1;stroke-linecap:butt;stroke-linejoin:round;stroke-miterlimit:10;stroke-dasharray:none;stroke-opacity:1"
                             d="M -4,-4 4,4 M -4,4 4,-4" /></g></g><g
                         transform="translate(38.045455,0.69518316)"
                         id="g288"><g
                           id="g290"><g
                             clip-path="url(#clipPath296)"
                             id="g292"><path
                               id="path298"
                               style="fill:#1f77b4;fill-opacity:1;fill-rule:nonzero;stroke:#1f77b4;stroke-width:1;stroke-linecap:butt;stroke-linejoin:round;stroke-miterlimit:10;stroke-dasharray:none;stroke-opacity:1"
                               d="M -4,-4 4,4 M -4,4 4,-4" /></g></g><g
                           transform="translate(38.045455,2.9423574)"
                           id="g300"><g
                             id="g302"><g
                               clip-path="url(#clipPath308)"
                               id="g304"><path
                                 id="path310"
                                 style="fill:#1f77b4;fill-opacity:1;fill-rule:nonzero;stroke:#1f77b4;stroke-width:1;stroke-linecap:butt;stroke-linejoin:round;stroke-miterlimit:10;stroke-dasharray:none;stroke-opacity:1"
                                 d="M -4,-4 4,4 M -4,4 4,-4" /></g></g></g></g></g></g></g></g></g></g></g></g></g><g
       id="g312"><g
         clip-path="url(#clipPath318)"
         id="g314"><path
           id="path320"
           style="fill:none;stroke:#ff7f0e;stroke-width:1.5;stroke-linecap:butt;stroke-linejoin:round;stroke-miterlimit:10;stroke-dasharray:5.55, 2.4;stroke-dashoffset:0;stroke-opacity:1"
           d="m 54.605682,60.506322 38.045454,1.568711 38.045454,4.048241 38.04545,0.0059 38.04546,2.161805 38.04545,9.8259 38.04546,21.196743 38.04545,36.200868 38.04546,76.48364" /><g
           transform="translate(54.605682,60.506322)"
           id="g322"><g
             id="g324"><g
               clip-path="url(#clipPath330)"
               id="g326"><path
                 id="path332"
                 style="fill:#ff7f0e;fill-opacity:1;fill-rule:nonzero;stroke:#ff7f0e;stroke-width:1;stroke-linecap:butt;stroke-linejoin:round;stroke-miterlimit:10;stroke-dasharray:none;stroke-opacity:1"
                 d="m 0,-2 c 0.530406,0 1.03916,0.210733 1.414214,0.585786 C 1.789267,-1.03916 2,-0.530406 2,0 2,0.530406 1.789267,1.03916 1.414214,1.414214 1.03916,1.789267 0.530406,2 0,2 -0.530406,2 -1.03916,1.789267 -1.414214,1.414214 -1.789267,1.03916 -2,0.530406 -2,0 -2,-0.530406 -1.789267,-1.03916 -1.414214,-1.414214 -1.03916,-1.789267 -0.530406,-2 0,-2 Z" /></g></g><g
             transform="translate(38.045455,1.5687109)"
             id="g334"><g
               id="g336"><g
                 clip-path="url(#clipPath342)"
                 id="g338"><path
                   id="path344"
                   style="fill:#ff7f0e;fill-opacity:1;fill-rule:nonzero;stroke:#ff7f0e;stroke-width:1;stroke-linecap:butt;stroke-linejoin:round;stroke-miterlimit:10;stroke-dasharray:none;stroke-opacity:1"
                   d="m 0,-2 c 0.530406,0 1.03916,0.210733 1.414214,0.585786 C 1.789267,-1.03916 2,-0.530406 2,0 2,0.530406 1.789267,1.03916 1.414214,1.414214 1.03916,1.789267 0.530406,2 0,2 -0.530406,2 -1.03916,1.789267 -1.414214,1.414214 -1.789267,1.03916 -2,0.530406 -2,0 -2,-0.530406 -1.789267,-1.03916 -1.414214,-1.414214 -1.03916,-1.789267 -0.530406,-2 0,-2 Z" /></g></g><g
               transform="translate(38.045455,4.0482412)"
               id="g346"><g
                 id="g348"><g
                   clip-path="url(#clipPath354)"
                   id="g350"><path
                     id="path356"
                     style="fill:#ff7f0e;fill-opacity:1;fill-rule:nonzero;stroke:#ff7f0e;stroke-width:1;stroke-linecap:butt;stroke-linejoin:round;stroke-miterlimit:10;stroke-dasharray:none;stroke-opacity:1"
                     d="m 0,-2 c 0.530406,0 1.03916,0.210733 1.414214,0.585786 C 1.789267,-1.03916 2,-0.530406 2,0 2,0.530406 1.789267,1.03916 1.414214,1.414214 1.03916,1.789267 0.530406,2 0,2 -0.530406,2 -1.03916,1.789267 -1.414214,1.414214 -1.789267,1.03916 -2,0.530406 -2,0 -2,-0.530406 -1.789267,-1.03916 -1.414214,-1.414214 -1.03916,-1.789267 -0.530406,-2 0,-2 Z" /></g></g><g
                 transform="translate(38.045455,0.00590111)"
                 id="g358"><g
                   id="g360"><g
                     clip-path="url(#clipPath366)"
                     id="g362"><path
                       id="path368"
                       style="fill:#ff7f0e;fill-opacity:1;fill-rule:nonzero;stroke:#ff7f0e;stroke-width:1;stroke-linecap:butt;stroke-linejoin:round;stroke-miterlimit:10;stroke-dasharray:none;stroke-opacity:1"
                       d="m 0,-2 c 0.530406,0 1.03916,0.210733 1.414214,0.585786 C 1.789267,-1.03916 2,-0.530406 2,0 2,0.530406 1.789267,1.03916 1.414214,1.414214 1.03916,1.789267 0.530406,2 0,2 -0.530406,2 -1.03916,1.789267 -1.414214,1.414214 -1.789267,1.03916 -2,0.530406 -2,0 -2,-0.530406 -1.789267,-1.03916 -1.414214,-1.414214 -1.03916,-1.789267 -0.530406,-2 0,-2 Z" /></g></g><g
                   transform="translate(38.045455,2.1618049)"
                   id="g370"><g
                     id="g372"><g
                       clip-path="url(#clipPath378)"
                       id="g374"><path
                         id="path380"
                         style="fill:#ff7f0e;fill-opacity:1;fill-rule:nonzero;stroke:#ff7f0e;stroke-width:1;stroke-linecap:butt;stroke-linejoin:round;stroke-miterlimit:10;stroke-dasharray:none;stroke-opacity:1"
                         d="m 0,-2 c 0.530406,0 1.03916,0.210733 1.414214,0.585786 C 1.789267,-1.03916 2,-0.530406 2,0 2,0.530406 1.789267,1.03916 1.414214,1.414214 1.03916,1.789267 0.530406,2 0,2 -0.530406,2 -1.03916,1.789267 -1.414214,1.414214 -1.789267,1.03916 -2,0.530406 -2,0 -2,-0.530406 -1.789267,-1.03916 -1.414214,-1.414214 -1.03916,-1.789267 -0.530406,-2 0,-2 Z" /></g></g><g
                     transform="translate(38.045455,9.8259001)"
                     id="g382"><g
                       id="g384"><g
                         clip-path="url(#clipPath390)"
                         id="g386"><path
                           id="path392"
                           style="fill:#ff7f0e;fill-opacity:1;fill-rule:nonzero;stroke:#ff7f0e;stroke-width:1;stroke-linecap:butt;stroke-linejoin:round;stroke-miterlimit:10;stroke-dasharray:none;stroke-opacity:1"
                           d="m 0,-2 c 0.530406,0 1.03916,0.210733 1.414214,0.585786 C 1.789267,-1.03916 2,-0.530406 2,0 2,0.530406 1.789267,1.03916 1.414214,1.414214 1.03916,1.789267 0.530406,2 0,2 -0.530406,2 -1.03916,1.789267 -1.414214,1.414214 -1.789267,1.03916 -2,0.530406 -2,0 -2,-0.530406 -1.789267,-1.03916 -1.414214,-1.414214 -1.03916,-1.789267 -0.530406,-2 0,-2 Z" /></g></g><g
                       transform="translate(38.045455,21.196743)"
                       id="g394"><g
                         id="g396"><g
                           clip-path="url(#clipPath402)"
                           id="g398"><path
                             id="path404"
                             style="fill:#ff7f0e;fill-opacity:1;fill-rule:nonzero;stroke:#ff7f0e;stroke-width:1;stroke-linecap:butt;stroke-linejoin:round;stroke-miterlimit:10;stroke-dasharray:none;stroke-opacity:1"
                             d="m 0,-2 c 0.530406,0 1.03916,0.210733 1.414214,0.585786 C 1.789267,-1.03916 2,-0.530406 2,0 2,0.530406 1.789267,1.03916 1.414214,1.414214 1.03916,1.789267 0.530406,2 0,2 -0.530406,2 -1.03916,1.789267 -1.414214,1.414214 -1.789267,1.03916 -2,0.530406 -2,0 -2,-0.530406 -1.789267,-1.03916 -1.414214,-1.414214 -1.03916,-1.789267 -0.530406,-2 0,-2 Z" /></g></g><g
                         transform="translate(38.045455,36.200864)"
                         id="g406"><g
                           id="g408"><g
                             clip-path="url(#clipPath414)"
                             id="g410"><path
                               id="path416"
                               style="fill:#ff7f0e;fill-opacity:1;fill-rule:nonzero;stroke:#ff7f0e;stroke-width:1;stroke-linecap:butt;stroke-linejoin:round;stroke-miterlimit:10;stroke-dasharray:none;stroke-opacity:1"
                               d="m 0,-2 c 0.530406,0 1.03916,0.210733 1.414214,0.585786 C 1.789267,-1.03916 2,-0.530406 2,0 2,0.530406 1.789267,1.03916 1.414214,1.414214 1.03916,1.789267 0.530406,2 0,2 -0.530406,2 -1.03916,1.789267 -1.414214,1.414214 -1.789267,1.03916 -2,0.530406 -2,0 -2,-0.530406 -1.789267,-1.03916 -1.414214,-1.414214 -1.03916,-1.789267 -0.530406,-2 0,-2 Z" /></g></g><g
                           transform="translate(38.045455,76.483638)"
                           id="g418"><g
                             id="g420"><g
                               clip-path="url(#clipPath426)"
                               id="g422"><path
                                 id="path428"
                                 style="fill:#ff7f0e;fill-opacity:1;fill-rule:nonzero;stroke:#ff7f0e;stroke-width:1;stroke-linecap:butt;stroke-linejoin:round;stroke-miterlimit:10;stroke-dasharray:none;stroke-opacity:1"
                                 d="m 0,-2 c 0.530406,0 1.03916,0.210733 1.414214,0.585786 C 1.789267,-1.03916 2,-0.530406 2,0 2,0.530406 1.789267,1.03916 1.414214,1.414214 1.03916,1.789267 0.530406,2 0,2 -0.530406,2 -1.03916,1.789267 -1.414214,1.414214 -1.789267,1.03916 -2,0.530406 -2,0 -2,-0.530406 -1.789267,-1.03916 -1.414214,-1.414214 -1.03916,-1.789267 -0.530406,-2 0,-2 Z" /></g></g></g></g></g></g></g></g></g></g></g></g></g><g
       id="g430"><g
         clip-path="url(#clipPath436)"
         id="g432"><path
           id="path438"
           style="fill:none;stroke:#2ca02c;stroke-width:1.5;stroke-linecap:square;stroke-linejoin:round;stroke-miterlimit:10;stroke-dasharray:none;stroke-opacity:1"
           d="m 54.605682,71.61502 38.045454,2.148508 38.045454,2.772304 38.04545,8.602722 38.04546,7.395929 38.04545,4.983706 38.04546,5.848701 38.04545,7.4901 38.04546,6.23315" /><g
           transform="translate(54.605682,71.61502)"
           id="g440"><g
             id="g442"><g
               clip-path="url(#clipPath448)"
               id="g444"><path
                 id="path450"
                 style="fill:#2ca02c;fill-opacity:1;fill-rule:nonzero;stroke:#2ca02c;stroke-width:1;stroke-linecap:butt;stroke-linejoin:miter;stroke-miterlimit:10;stroke-dasharray:none;stroke-opacity:1"
                 d="M 0,4 -4,-4 H 4 Z" /></g></g><g
             transform="translate(38.045455,2.1485086)"
             id="g452"><g
               id="g454"><g
                 clip-path="url(#clipPath460)"
                 id="g456"><path
                   id="path462"
                   style="fill:#2ca02c;fill-opacity:1;fill-rule:nonzero;stroke:#2ca02c;stroke-width:1;stroke-linecap:butt;stroke-linejoin:miter;stroke-miterlimit:10;stroke-dasharray:none;stroke-opacity:1"
                   d="M 0,4 -4,-4 H 4 Z" /></g></g><g
               transform="translate(38.045455,2.7723038)"
               id="g464"><g
                 id="g466"><g
                   clip-path="url(#clipPath472)"
                   id="g468"><path
                     id="path474"
                     style="fill:#2ca02c;fill-opacity:1;fill-rule:nonzero;stroke:#2ca02c;stroke-width:1;stroke-linecap:butt;stroke-linejoin:miter;stroke-miterlimit:10;stroke-dasharray:none;stroke-opacity:1"
                     d="M 0,4 -4,-4 H 4 Z" /></g></g><g
                 transform="translate(38.045455,8.6027222)"
                 id="g476"><g
                   id="g478"><g
                     clip-path="url(#clipPath484)"
                     id="g480"><path
                       id="path486"
                       style="fill:#2ca02c;fill-opacity:1;fill-rule:nonzero;stroke:#2ca02c;stroke-width:1;stroke-linecap:butt;stroke-linejoin:miter;stroke-miterlimit:10;stroke-dasharray:none;stroke-opacity:1"
                       d="M 0,4 -4,-4 H 4 Z" /></g></g><g
                   transform="translate(38.045455,7.3959289)"
                   id="g488"><g
                     id="g490"><g
                       clip-path="url(#clipPath496)"
                       id="g492"><path
                         id="path498"
                         style="fill:#2ca02c;fill-opacity:1;fill-rule:nonzero;stroke:#2ca02c;stroke-width:1;stroke-linecap:butt;stroke-linejoin:miter;stroke-miterlimit:10;stroke-dasharray:none;stroke-opacity:1"
                         d="M 0,4 -4,-4 H 4 Z" /></g></g><g
                     transform="translate(38.045455,4.9837062)"
                     id="g500"><g
                       id="g502"><g
                         clip-path="url(#clipPath508)"
                         id="g504"><path
                           id="path510"
                           style="fill:#2ca02c;fill-opacity:1;fill-rule:nonzero;stroke:#2ca02c;stroke-width:1;stroke-linecap:butt;stroke-linejoin:miter;stroke-miterlimit:10;stroke-dasharray:none;stroke-opacity:1"
                           d="M 0,4 -4,-4 H 4 Z" /></g></g><g
                       transform="translate(38.045455,5.8486968)"
                       id="g512"><g
                         id="g514"><g
                           clip-path="url(#clipPath520)"
                           id="g516"><path
                             id="path522"
                             style="fill:#2ca02c;fill-opacity:1;fill-rule:nonzero;stroke:#2ca02c;stroke-width:1;stroke-linecap:butt;stroke-linejoin:miter;stroke-miterlimit:10;stroke-dasharray:none;stroke-opacity:1"
                             d="M 0,4 -4,-4 H 4 Z" /></g></g><g
                         transform="translate(38.045455,7.4900996)"
                         id="g524"><g
                           id="g526"><g
                             clip-path="url(#clipPath532)"
                             id="g528"><path
                               id="path534"
                               style="fill:#2ca02c;fill-opacity:1;fill-rule:nonzero;stroke:#2ca02c;stroke-width:1;stroke-linecap:butt;stroke-linejoin:miter;stroke-miterlimit:10;stroke-dasharray:none;stroke-opacity:1"
                               d="M 0,4 -4,-4 H 4 Z" /></g></g><g
                           transform="translate(38.045455,6.2331491)"
                           id="g536"><g
                             id="g538"><g
                               clip-path="url(#clipPath544)"
                               id="g540"><path
                                 id="path546"
                                 style="fill:#2ca02c;fill-opacity:1;fill-rule:nonzero;stroke:#2ca02c;stroke-width:1;stroke-linecap:butt;stroke-linejoin:miter;stroke-miterlimit:10;stroke-dasharray:none;stroke-opacity:1"
                                 d="M 0,4 -4,-4 H 4 Z" /></g></g></g></g></g></g></g></g></g></g></g></g></g><g
       id="g548"><g
         clip-path="url(#clipPath554)"
         id="g550"><path
           id="path556"
           style="fill:none;stroke:#d62728;stroke-width:1.5;stroke-linecap:square;stroke-linejoin:round;stroke-miterlimit:10;stroke-dasharray:none;stroke-opacity:1"
           d="m 54.605682,162.70946 7.136607,65.14466" /><g
           transform="translate(54.605682,162.70946)"
           id="g558"><g
             id="g560"><g
               clip-path="url(#clipPath566)"
               id="g562"><path
                 id="path568"
                 style="fill:#d62728;fill-opacity:1;fill-rule:nonzero;stroke:#d62728;stroke-width:1;stroke-linecap:butt;stroke-linejoin:bevel;stroke-miterlimit:10;stroke-dasharray:none;stroke-opacity:1"
                 d="M 0,4 -0.898056,1.236068 h -2.90617 L -1.453085,-0.472136 -2.351141,-3.236068 0,-1.527864 2.351141,-3.236068 1.453085,-0.472136 3.804226,1.236068 h -2.90617 z" /></g></g></g></g></g><g
       id="g570"><path
         id="path572"
         style="fill:none;stroke:#000000;stroke-width:0.80000001;stroke-linecap:square;stroke-linejoin:miter;stroke-miterlimit:10;stroke-dasharray:none;stroke-opacity:1"
         d="M 39.3875,58.878125 V 219.65412" /><path
         id="path574"
         style="fill:none;stroke:#000000;stroke-width:0.80000001;stroke-linecap:square;stroke-linejoin:miter;stroke-miterlimit:10;stroke-dasharray:none;stroke-opacity:1"
         d="M 374.1875,58.878125 V 219.65412" /><path
         id="path576"
         style="fill:none;stroke:#000000;stroke-width:0.80000001;stroke-linecap:square;stroke-linejoin:miter;stroke-miterlimit:10;stroke-dasharray:none;stroke-opacity:1"
         d="m 39.3875,58.878125 h 334.8" /><path
         id="path578"
         style="fill:none;stroke:#000000;stroke-width:0.80000001;stroke-linecap:square;stroke-linejoin:miter;stroke-miterlimit:10;stroke-dasharray:none;stroke-opacity:1"
         d="m 39.3875,219.65412 h 334.8" /><path
         id="path580"
         style="fill:#ffffff;fill-opacity:0.8;fill-rule:nonzero;stroke:#cccccc;stroke-width:1;stroke-linecap:butt;stroke-linejoin:miter;stroke-miterlimit:10;stroke-dasharray:none;stroke-opacity:0.8"
         d="m 147.95625,132.94162 h 117.6625 c 1.73333,0 2.6,0.86667 2.6,2.6 v 75.0125 c 0,1.73334 -0.86667,2.6 -2.6,2.6 h -117.6625 c -1.73333,0 -2.6,-0.86666 -2.6,-2.6 v -75.0125 c 0,-1.73333 0.86667,-2.6 2.6,-2.6 z" /><path
         id="path582"
         style="fill:none;stroke:#1f77b4;stroke-width:1.5;stroke-linecap:square;stroke-linejoin:round;stroke-miterlimit:10;stroke-dasharray:none;stroke-opacity:1"
         d="m 150.55625,202.62912 h 13 13" /><path
         id="path584"
         style="fill:#1f77b4;fill-opacity:1;fill-rule:nonzero;stroke:#1f77b4;stroke-width:1;stroke-linecap:butt;stroke-linejoin:round;stroke-miterlimit:10;stroke-dasharray:none;stroke-opacity:1"
         d="m 159.55625,198.62912 8,8 m -8,0 8,-8" /><g
         transform="translate(186.95625,198.07912)"
         id="g586"><text
           id="text590"
           style="font-variant:normal;font-weight:normal;font-size:13px;font-family:'DejaVu Sans';-inkscape-font-specification:DejaVuSans;writing-mode:lr-tb;fill:#000000;fill-opacity:1;fill-rule:nonzero;stroke:none"
           transform="scale(1,-1)"><tspan
             id="tspan588"
             y="0"
             x="0 8.6732502 13.76925 17.383249 25.352249">Atlas</tspan></text>
</g><path
         id="path592"
         style="fill:none;stroke:#ff7f0e;stroke-width:1.5;stroke-linecap:butt;stroke-linejoin:round;stroke-miterlimit:10;stroke-dasharray:5.55, 2.4;stroke-dashoffset:0;stroke-opacity:1"
         d="m 150.55625,183.551 h 13 13" /><path
         id="path594"
         style="fill:#ff7f0e;fill-opacity:1;fill-rule:nonzero;stroke:#ff7f0e;stroke-width:1;stroke-linecap:butt;stroke-linejoin:round;stroke-miterlimit:10;stroke-dasharray:none;stroke-opacity:1"
         d="m 163.55625,181.551 c 0.53041,0 1.03916,0.21073 1.41421,0.58579 0.37506,0.37505 0.58579,0.8838 0.58579,1.41421 0,0.53041 -0.21073,1.03916 -0.58579,1.41421 -0.37505,0.37506 -0.8838,0.58579 -1.41421,0.58579 -0.53041,0 -1.03916,-0.21073 -1.41421,-0.58579 -0.37506,-0.37505 -0.58579,-0.8838 -0.58579,-1.41421 0,-0.53041 0.21073,-1.03916 0.58579,-1.41421 0.37505,-0.37506 0.8838,-0.58579 1.41421,-0.58579 z" /><g
         transform="translate(186.95625,179.001)"
         id="g596"><text
           id="text600"
           style="font-variant:normal;font-weight:normal;font-size:13px;font-family:'DejaVu Sans';-inkscape-font-specification:DejaVuSans;writing-mode:lr-tb;fill:#000000;fill-opacity:1;fill-rule:nonzero;stroke:none"
           transform="scale(1,-1)"><tspan
             id="tspan598"
             y="0"
             x="0 9.776 17.472 27.702999 35.945 43.914001">HyQuas</tspan></text>
</g><path
         id="path602"
         style="fill:none;stroke:#2ca02c;stroke-width:1.5;stroke-linecap:square;stroke-linejoin:round;stroke-miterlimit:10;stroke-dasharray:none;stroke-opacity:1"
         d="m 150.55625,164.47287 h 13 13" /><path
         id="path604"
         style="fill:#2ca02c;fill-opacity:1;fill-rule:nonzero;stroke:#2ca02c;stroke-width:1;stroke-linecap:butt;stroke-linejoin:miter;stroke-miterlimit:10;stroke-dasharray:none;stroke-opacity:1"
         d="m 163.55625,168.47287 -4,-8 h 8 z" /><g
         transform="translate(186.95625,159.92287)"
         id="g606"><text
           id="text610"
           style="font-variant:normal;font-weight:normal;font-size:13px;font-family:'DejaVu Sans';-inkscape-font-specification:DejaVuSans;writing-mode:lr-tb;fill:#000000;fill-opacity:1;fill-rule:nonzero;stroke:none"
           transform="scale(1,-1)"><tspan
             id="tspan608"
             y="0"
             x="0 7.1500001 15.392 25.622999 33.865002 41.834 50.076 55.172001 63.414001">cuQuantum</tspan></text>
</g><path
         id="path612"
         style="fill:none;stroke:#d62728;stroke-width:1.5;stroke-linecap:square;stroke-linejoin:round;stroke-miterlimit:10;stroke-dasharray:none;stroke-opacity:1"
         d="m 150.55625,145.39475 h 13 13" /><path
         id="path614"
         style="fill:#d62728;fill-opacity:1;fill-rule:nonzero;stroke:#d62728;stroke-width:1;stroke-linecap:butt;stroke-linejoin:bevel;stroke-miterlimit:10;stroke-dasharray:none;stroke-opacity:1"
         d="m 163.55625,149.39475 -0.89806,-2.76393 h -2.90617 l 2.35114,-1.70821 -0.89805,-2.76393 2.35114,1.70821 2.35114,-1.70821 -0.89806,2.76393 2.35115,1.70821 h -2.90617 z" /><g
         transform="translate(186.95625,140.84475)"
         id="g616"><text
           id="text620"
           style="font-variant:normal;font-weight:normal;font-size:13px;font-family:'DejaVu Sans';-inkscape-font-specification:DejaVuSans;writing-mode:lr-tb;fill:#000000;fill-opacity:1;fill-rule:nonzero;stroke:none"
           transform="scale(1,-1)"><tspan
             id="tspan618"
             y="0"
             x="0 10.231 13.845 20.618 28.145 31.759001">Qiskit</tspan></text>
</g></g></g></svg>