<svg id="Layer_1" data-name="Layer 1" xmlns="http://www.w3.org/2000/svg" viewBox="0 0 559.5 84.44"><defs><style>.cls-1{fill:#c41230;}.cls-2{fill:#231f20;}.cls-3{fill:#9b9b9b;}.cls-4{fill:#717171;}</style></defs><title>Artboard 1</title><polygon class="cls-1" points="197.74 14.8 197.74 28.88 200.09 28.88 200.09 29.81 190.7 29.81 190.7 28.88 193.05 28.88 193.05 15.79 191.23 15.79 191.23 14.8 197.74 14.8"/><path class="cls-1" d="M105.05,5.7h-.85c0,.73-.41,1-1.14,1C101.61,6.74,99.5,5,97,5c-7.07,0-11.34,7-11.34,13.11s4.07,12.27,10.9,12.27c4.13,0,5.69-2,6.79-2,.72,0,.86.64.86,1.41h.93V21.36h-.93L104,22.53c-.48,2.8-2.65,6.93-7.1,6.93-3.93,0-5.45-3.41-5.45-11.79,0-8.79,2.07-11.75,5.55-11.75,3.94,0,6.64,4.41,7.19,7.92h.85Z"/><path class="cls-1" d="M117.14,25.76c-.06,1.81-1.08,3.28-2.68,3.28-2.32,0-2.42-1.95-2.42-3.44,0-1.8.21-3,2.42-3.23l2.68-.27Zm6.21,1.13c0,.88-.58,1.9-1,1.9-.62,0-.76-.64-.76-1.7V19.27c0-3.88-3.64-4.83-7.14-4.83s-5.88,1.66-5.88,3.57a2,2,0,0,0,2.21,2.21,1.93,1.93,0,0,0,2.07-2c0-1.73-1.8-1.75-1.8-1.79,0-.78,2-1,3.16-1,2.55,0,2.89.94,2.89,3V21.2l-3.33.28c-3.1.23-6.46,1.05-6.46,4.59,0,3,2.65,4.15,5.27,4.15,1.33,0,3.67-.51,4.56-2.14a3.48,3.48,0,0,0,3.4,2.14c2.21,0,3.64-1.33,3.64-3.33Z"/><polygon class="cls-1" points="439.71 14.75 439.71 28.83 442.06 28.83 442.06 29.76 432.67 29.76 432.67 28.83 435.02 28.83 435.02 15.74 432.67 15.74 432.67 14.75 439.71 14.75"/><path class="cls-1" d="M235.76,22,241.4,5.89h7.77l0,1h-2.22v22h2.22v.94h-9.34v-.94h2.27V7.09H242l-7.92,22.72h-.92L225,6.68H225V26c0,2.76.72,2.9,2.55,2.9h.11v.94h-5.89v-.94h0c1.95,0,2.31-1.13,2.31-2.59V6.85h-2.31v-1h8.54Z"/><path class="cls-1" d="M254.59,20.66V18.37c0-2.28,1-3,2.14-3,1.64,0,2.15,1.12,2.15,3v2.29Zm0,.92H264c0-3.67-3.44-7.21-7-7.14a7.78,7.78,0,0,0-7.48,8.06,7.46,7.46,0,0,0,7.58,7.72c4.19,0,6.26-2.58,7-5.95h-.93c-.74,3.16-2.4,5-5.06,5-3.16,0-3.5-2.48-3.5-4.79Z"/><path class="cls-1" d="M395.91,20.6V18.32c0-2.28,1-3,2.15-3,1.63,0,2.14,1.13,2.14,3V20.6Zm0,.93h9.39c0-3.68-3.43-7.21-7-7.15a7.78,7.78,0,0,0-7.48,8.07,7.46,7.46,0,0,0,7.59,7.72c4.18,0,6.26-2.59,7-6h-.92c-.75,3.16-2.41,5-5.06,5-3.17,0-3.51-2.48-3.51-4.79Z"/><polygon class="cls-1" points="264.04 5.92 264.04 6.78 266.39 6.78 266.39 28.85 264.04 28.85 264.04 29.82 273.43 29.82 273.43 28.85 271.08 28.85 271.08 5.92 264.04 5.92"/><polygon class="cls-1" points="274.08 5.92 274.08 6.78 276.43 6.78 276.43 28.85 274.08 28.85 274.08 29.82 283.47 29.82 283.47 28.85 281.13 28.85 281.13 5.92 274.08 5.92"/><path class="cls-1" d="M294.27,25.69c0,2.56-1.06,3.61-2.79,3.61s-2.79-1.05-2.79-3.61V19c0-2.55,1.05-3.61,2.79-3.61s2.79,1.06,2.79,3.61Zm5.3-3.36a8.1,8.1,0,1,0-8.09,7.89,7.79,7.79,0,0,0,8.09-7.89"/><path class="cls-1" d="M324,6.7h2.38V21.81c0,5.27,3.64,8.47,9.18,8.47,6.26,0,9-3.3,9-8.3V9.06c0-2,.55-2.36,1.77-2.36H347V5.79h-6V6.7h.43c1.73,0,2,.52,2,2.5V22.32c0,4.63-2.87,6.74-5.78,6.74-5,0-6-3.34-6.25-7.69V6.7h2.23V5.79H324Z"/><path class="cls-1" d="M382.92,30.14h.92l5-11.9c1-2.22,1.56-2.51,2.34-2.54h.31v-.93h-5.31v.94h.65c1,0,1.44-.06,1.44.82a5.44,5.44,0,0,1-.58,2.07L385.42,24l-3.7-8.33h1.88v-.94h-8.53v.94h1.59Z"/><path class="cls-1" d="M420.83,30.14h.8a1.09,1.09,0,0,1,1.2-.81c.89,0,1.94.81,3.85.81a5.54,5.54,0,0,0,5.44-5.57c0-4.15-2.86-4.46-6.5-5-1.9-.27-3-.55-3-2s1.4-2.27,3.23-2.27c2.55,0,3.54,1.69,4.39,3.9h.81V14.36h-.77c0,.41-.36.75-1,.75-1.09,0-2-.75-3.54-.75a5.06,5.06,0,0,0-5.07,5.07c0,4.39,3.33,4.76,5.92,5.07s3.33.46,3.33,2c0,1.8-1.49,2.62-3.33,2.62-2.58,0-4.36-2.24-5-4.72h-.8Z"/><polygon class="cls-1" points="373.82 14.75 373.82 28.83 376.17 28.83 376.17 29.76 366.78 29.76 366.78 28.83 369.13 28.83 369.13 15.74 366.78 15.74 366.78 14.75 373.82 14.75"/><path class="cls-1" d="M369.13,10.05a2.35,2.35,0,1,0,2.35-2.34,2.34,2.34,0,0,0-2.35,2.34"/><path class="cls-1" d="M435,10.05a2.35,2.35,0,1,0,2.34-2.34A2.34,2.34,0,0,0,435,10.05"/><path class="cls-1" d="M164.29,20.65V18.37c0-2.28,1-3,2.14-3,1.63,0,2.14,1.13,2.14,3v2.28Zm0,.93h9.39c0-3.68-3.44-7.21-7-7.15a7.78,7.78,0,0,0-7.49,8.07,7.46,7.46,0,0,0,7.59,7.72c4.18,0,6.26-2.59,7-6h-.93c-.75,3.17-2.41,5-5.06,5-3.16,0-3.5-2.48-3.5-4.8Z"/><path class="cls-1" d="M205.36,20.65V18.37c0-2.28,1-3,2.14-3s2.14.71,2.14,3v2.28Zm0,.93h9.39c0-3.68-3.44-7.21-7-7.15a7.78,7.78,0,0,0-7.48,8.07,7.46,7.46,0,0,0,7.58,7.72c4.19,0,6.26-2.59,7-6h-.93c-.74,3.17-2.4,5-5.06,5-3.16,0-3.5-2.48-3.5-4.8Z"/><path class="cls-1" d="M363.77,28.84V19.66c0-3.68-1.57-5.39-4.8-5.39a6.17,6.17,0,0,0-5.51,3.28h0V14.79h-7v.92h2.34V28.84h-2.34v.92h9.05v-.92h-2v-9c.29-1.27,1.89-4.18,3.75-4.18,1.24,0,1.86.42,1.86,2.71V28.84h-1.94v.92h9v-.92Z"/><path class="cls-1" d="M306.6,14.85V17.6h0a6.19,6.19,0,0,1,5.52-3.28c3.23,0,4.79,1.72,4.79,5.39V28.9h2.35v.91h-9V28.9h1.94V18.45c0-2.28-.63-2.71-1.87-2.71-1.85,0-3.45,2.92-3.75,4.18v9h2v.91h-9.05V28.9h2.35V15.77h-2.35v-.92Z"/><path class="cls-1" d="M156.8,28.89V19.71c0-3.68-1.57-5.39-4.8-5.39a6.17,6.17,0,0,0-5.51,3.28h0V14.84h-7v.92h2.35V28.89h-2.35v.92h9.05v-.92h-2v-9c.29-1.26,1.89-4.17,3.75-4.17,1.24,0,1.87.42,1.87,2.71V28.89h-1.94v.92h9v-.92Z"/><path class="cls-1" d="M193.07,10.15a2.34,2.34,0,1,0,2.34-2.35,2.33,2.33,0,0,0-2.34,2.35"/><path class="cls-1" d="M462.54,14.75v1c1.45,0,2.09.13,2.09.79a5.44,5.44,0,0,1-.58,2.07L461.74,24l-3.69-8.3H460v-1H448.26V7.46h-.62c0,3.6-2.45,7.31-5.88,7.31v1h1.8V26.27a3.72,3.72,0,0,0,3.74,3.87,4.84,4.84,0,0,0,4.53-2.61l-.73-.4c-.41.61-1,1.42-1.8,1.42-.68,0-1-.48-1-1.6V15.74H453l6.21,14.34-2.15,5.06v0h0a.31.31,0,0,1-.26.16.28.28,0,0,1-.27-.19v0a2.34,2.34,0,1,0-3.31,2.73h0l.07,0,.14.06a2.24,2.24,0,0,0,.86.18c2,.17,3-1.29,3.68-2.77.15-.34.3-.68.43-1,.3-.72.82-2,1.44-3.4h0l.59-1.39h0l4.79-11.31c1-2.22,1.41-2.51,2.65-2.51h0v-1Z"/><path class="cls-1" d="M136,14.28a4.88,4.88,0,0,0-4.49,3.19h-.07V14.88h-7v1h2.35V28.92h-2.35v.94h10.17v-.94h-3.13V21.6c0-2.19.57-4.43,2-5.67a.32.32,0,0,1,.3,0,.3.3,0,0,1,.15.29h0a3.5,3.5,0,0,0-.18,1,2.2,2.2,0,0,0,2.31,2.21,2.46,2.46,0,0,0,2.59-2.49A2.48,2.48,0,0,0,136,14.28Z"/><path class="cls-1" d="M187.22,15.38c.07,0,.16-.05.21,0a.15.15,0,0,1,0,.19h0a1.46,1.46,0,0,0,.9,2.18,1.47,1.47,0,0,0,1.82-1.43,1.6,1.6,0,0,0-.8-1.33,2.78,2.78,0,0,0-1.5-.39,4,4,0,0,0-2.5,1.07h0l-.49-.31a7.24,7.24,0,0,0-3.76-.91c-2.86,0-5.92,1.87-5.92,5A4.42,4.42,0,0,0,178,23.55v.07a3.71,3.71,0,0,0-3.4,3.91,3.24,3.24,0,0,0,2.21,3.41V31a4,4,0,0,0-2.93,3.37c0,2.52,3,4.46,6.74,4.46,4.73,0,7.82-3.2,7.82-7.35,0-3.3-1.63-4.8-5-4.73h-5.65c-.85,0-1.42,0-1.42-.95S177.73,24,179,24a2.74,2.74,0,0,1,.69.2,4.21,4.21,0,0,0,1.4.21c2.92,0,6-1.67,6-4.9a5,5,0,0,0-1.24-3.22.11.11,0,0,1,0-.17,6.42,6.42,0,0,1,.88-.58,2,2,0,0,1,.4-.18ZM182.7,31c3.41,0,4.31.14,4.31,2.21,0,2.49-3,4.77-6.48,4.77-3.06,0-4.53-1.88-4.6-3.51A4.88,4.88,0,0,1,177.6,31Zm.58-11.62c0,3.95-.92,4.08-2.14,4.08s-2.08-.26-2.08-4.19c0-2.75.31-3.93,2.08-3.93,1.6,0,2.11.11,2.14,4Z"/><path class="cls-1" d="M417.22,14.14a4.87,4.87,0,0,0-4.49,3.2h-.07V14.75h-7v.95H408V28.79h-2.35v.93h10.18v-.93h-3.13V21.46c0-2.19.57-4.43,2-5.66a.3.3,0,0,1,.3,0,.29.29,0,0,1,.15.29h0a3.24,3.24,0,0,0-.17,1,2.19,2.19,0,0,0,2.31,2.21,2.45,2.45,0,0,0,2.58-2.48A2.48,2.48,0,0,0,417.22,14.14Z"/><path class="cls-2" d="M98.46,49.28a9.16,9.16,0,0,0-7.21,2.93q-2.64,2.92-2.64,8t2.49,8.09a8.82,8.82,0,0,0,7.09,2.89,18.92,18.92,0,0,0,5.63-.79v1.5a18.27,18.27,0,0,1-6,.85,10.26,10.26,0,0,1-8.08-3.31q-2.94-3.31-2.95-9.27a14.5,14.5,0,0,1,1.41-6.54,10.14,10.14,0,0,1,4-4.37,11.94,11.94,0,0,1,6.14-1.55,14.71,14.71,0,0,1,6.38,1.34l-.68,1.53A12.37,12.37,0,0,0,98.46,49.28Z"/><path class="cls-2" d="M121.46,63.37a10.27,10.27,0,0,1-2.15,6.92,7.42,7.42,0,0,1-5.93,2.49,7.65,7.65,0,0,1-4.2-1.15,7.26,7.26,0,0,1-2.78-3.3,12,12,0,0,1-1-5,10.23,10.23,0,0,1,2.15-6.91,7.43,7.43,0,0,1,5.9-2.47,7.28,7.28,0,0,1,5.86,2.51A10.32,10.32,0,0,1,121.46,63.37Zm-14.29,0a9.16,9.16,0,0,0,1.64,5.82,6.2,6.2,0,0,0,9.28,0,9.22,9.22,0,0,0,1.64-5.82,9.07,9.07,0,0,0-1.66-5.81,5.64,5.64,0,0,0-4.66-2.07,5.54,5.54,0,0,0-4.62,2.06A9.2,9.2,0,0,0,107.17,63.37Z"/><path class="cls-2" d="M149,72.45V60.57a6,6,0,0,0-1-3.86,3.94,3.94,0,0,0-3.17-1.22A5.16,5.16,0,0,0,140.65,57a7.24,7.24,0,0,0-1.34,4.82V72.45h-1.68V60.07q0-4.57-4.2-4.58a4.91,4.91,0,0,0-4.14,1.66Q128,58.8,128,62.45v10h-1.65V54.34h1.36l.35,2.48h.1a5.23,5.23,0,0,1,2.13-2.09,6.43,6.43,0,0,1,3.05-.74q4.29,0,5.5,3.22h.07a6.19,6.19,0,0,1,2.37-2.39,6.89,6.89,0,0,1,3.39-.83,5.83,5.83,0,0,1,4.45,1.58q1.48,1.59,1.48,5V72.45Z"/><path class="cls-2" d="M164.68,72.78a6.62,6.62,0,0,1-6.1-3.13h-.11l.05,1.4q.06,1.23.06,2.7v6.9h-1.65V54.34h1.4l.32,2.58h.1a6.54,6.54,0,0,1,6-2.93,6.71,6.71,0,0,1,5.59,2.41c1.28,1.6,1.93,3.94,1.93,7s-.68,5.29-2,6.92A6.77,6.77,0,0,1,164.68,72.78Zm0-1.46a5,5,0,0,0,4.3-2.07,9.55,9.55,0,0,0,1.53-5.78q0-8-5.77-8a5.79,5.79,0,0,0-4.65,1.74c-1,1.16-1.48,3.05-1.48,5.67v.54q0,4.25,1.43,6.06C161,70.71,162.5,71.32,164.65,71.32Z"/><path class="cls-2" d="M179.29,54.34V66.07a5.71,5.71,0,0,0,1.15,4A4.61,4.61,0,0,0,184,71.28a6.22,6.22,0,0,0,4.76-1.63q1.52-1.64,1.52-5.31v-10h1.63V72.45h-1.4l-.3-2.5h-.1c-1.17,1.89-3.27,2.83-6.28,2.83q-6.18,0-6.18-6.61V54.34Z"/><path class="cls-2" d="M203.75,71.32a12.24,12.24,0,0,0,2.73-.27v1.33a8.65,8.65,0,0,1-2.77.4,4.55,4.55,0,0,1-3.54-1.28,6,6,0,0,1-1.14-4V55.77h-2.68v-1l2.68-.75.84-4.1h.85v4.38H206v1.43h-5.31V67.24a5.24,5.24,0,0,0,.73,3.08A2.67,2.67,0,0,0,203.75,71.32Z"/><path class="cls-2" d="M217.81,72.78a7.88,7.88,0,0,1-6.15-2.43,9.73,9.73,0,0,1-2.21-6.81,10.63,10.63,0,0,1,2.13-6.94A7,7,0,0,1,217.33,54a6.21,6.21,0,0,1,5,2.23,9.19,9.19,0,0,1,1.85,6.07v1.33h-13a8.55,8.55,0,0,0,1.74,5.7,6.13,6.13,0,0,0,4.89,2,15.58,15.58,0,0,0,2.72-.21,16.81,16.81,0,0,0,3-.94v1.5a13,13,0,0,1-2.83.91A15.93,15.93,0,0,1,217.81,72.78Zm-.48-17.32a5.41,5.41,0,0,0-4.2,1.72,8.12,8.12,0,0,0-1.85,5h11.19a7.9,7.9,0,0,0-1.36-4.92A4.51,4.51,0,0,0,217.33,55.46Z"/><path class="cls-2" d="M237.48,54a14.63,14.63,0,0,1,2.46.23l-.31,1.59a9.63,9.63,0,0,0-2.35-.29,4.56,4.56,0,0,0-3.8,2,8,8,0,0,0-1.48,5v10h-1.65V54.34h1.4l.16,3.27H232a7.64,7.64,0,0,1,2.38-2.81A5.6,5.6,0,0,1,237.48,54Z"/><path class="cls-2" d="M265,66.17A5.86,5.86,0,0,1,262.74,71a9.27,9.27,0,0,1-5.95,1.78,18.79,18.79,0,0,1-6.85-1V70.1a17.36,17.36,0,0,0,6.71,1.12,7.51,7.51,0,0,0,4.76-1.38,4.36,4.36,0,0,0,1.76-3.6,4.18,4.18,0,0,0-.59-2.3,5.35,5.35,0,0,0-1.9-1.65,23.18,23.18,0,0,0-3.86-1.62,13.22,13.22,0,0,1-5.16-2.77,5.53,5.53,0,0,1-1.42-4,5.44,5.44,0,0,1,2.14-4.45,8.51,8.51,0,0,1,5.51-1.73,16.22,16.22,0,0,1,6.44,1.3l-.61,1.47a15.18,15.18,0,0,0-5.8-1.27,6.83,6.83,0,0,0-4.3,1.25,4.09,4.09,0,0,0-1.6,3.4,4.56,4.56,0,0,0,.49,2.22,4.62,4.62,0,0,0,1.61,1.55A20.84,20.84,0,0,0,258,59.32a20.53,20.53,0,0,1,4.28,1.91,6.06,6.06,0,0,1,2.09,2.1A5.71,5.71,0,0,1,265,66.17Z"/><path class="cls-2" d="M276.48,72.78a7.73,7.73,0,0,1-6.08-2.45,9.89,9.89,0,0,1-2.2-6.83,10,10,0,0,1,2.29-7A8,8,0,0,1,276.73,54a12.42,12.42,0,0,1,4.5.82l-.45,1.46a13.29,13.29,0,0,0-4.08-.78,6.22,6.22,0,0,0-5.05,2.06,9,9,0,0,0-1.71,5.92,8.77,8.77,0,0,0,1.71,5.74,5.89,5.89,0,0,0,4.8,2.07A11.75,11.75,0,0,0,281,70.4v1.53A10.32,10.32,0,0,1,276.48,72.78Z"/><path class="cls-2" d="M284.44,49.31c0-1.07.35-1.6,1.05-1.6a.92.92,0,0,1,.81.42,2,2,0,0,1,.29,1.18,2,2,0,0,1-.29,1.18.92.92,0,0,1-.81.44Q284.44,50.93,284.44,49.31Zm1.89,23.14h-1.65V54.34h1.65Z"/><path class="cls-2" d="M299.53,72.78a7.88,7.88,0,0,1-6.15-2.43,9.77,9.77,0,0,1-2.21-6.81,10.63,10.63,0,0,1,2.13-6.94A7,7,0,0,1,299.05,54a6.25,6.25,0,0,1,5.05,2.23A9.24,9.24,0,0,1,306,62.29v1.33H292.9a8.55,8.55,0,0,0,1.74,5.7,6.13,6.13,0,0,0,4.89,2,15.7,15.7,0,0,0,2.73-.21,17,17,0,0,0,3-.94v1.5a13,13,0,0,1-2.83.91A15.85,15.85,0,0,1,299.53,72.78Zm-.48-17.32a5.44,5.44,0,0,0-4.2,1.72,8.18,8.18,0,0,0-1.85,5h11.2a7.9,7.9,0,0,0-1.37-4.92A4.51,4.51,0,0,0,299.05,55.46Z"/><path class="cls-2" d="M323.33,72.45V60.71a5.72,5.72,0,0,0-1.15-4,4.61,4.61,0,0,0-3.56-1.24,6.2,6.2,0,0,0-4.76,1.64c-1,1.1-1.51,2.87-1.51,5.32v10H310.7V54.34h1.4l.32,2.48h.1c1.18-1.88,3.27-2.83,6.28-2.83Q325,54,325,60.6V72.45Z"/><path class="cls-2" d="M337.29,72.78a7.72,7.72,0,0,1-6.08-2.45A9.84,9.84,0,0,1,329,63.5a10,10,0,0,1,2.28-7A8,8,0,0,1,337.54,54a12.41,12.41,0,0,1,4.49.82l-.45,1.46a13.18,13.18,0,0,0-4.08-.78,6.18,6.18,0,0,0-5,2.06,9,9,0,0,0-1.72,5.92,8.72,8.72,0,0,0,1.72,5.74,5.87,5.87,0,0,0,4.79,2.07,11.72,11.72,0,0,0,4.58-.88v1.53A10.3,10.3,0,0,1,337.29,72.78Z"/><path class="cls-2" d="M352.35,72.78a7.9,7.9,0,0,1-6.16-2.43A9.77,9.77,0,0,1,344,63.54a10.64,10.64,0,0,1,2.14-6.94A7,7,0,0,1,351.86,54a6.22,6.22,0,0,1,5.05,2.23,9.24,9.24,0,0,1,1.85,6.07v1.33h-13a8.55,8.55,0,0,0,1.74,5.7,6.13,6.13,0,0,0,4.89,2,15.58,15.58,0,0,0,2.72-.21,17.07,17.07,0,0,0,3-.94v1.5a13,13,0,0,1-2.84.91A15.74,15.74,0,0,1,352.35,72.78Zm-.49-17.32a5.4,5.4,0,0,0-4.19,1.72,8.12,8.12,0,0,0-1.85,5H357a7.9,7.9,0,0,0-1.36-4.92A4.53,4.53,0,0,0,351.86,55.46Z"/><path class="cls-2" d="M390.16,60q0,6.13-3.21,9.27t-9.45,3.14h-5.83V48.09h6.58q5.83,0,8.87,3C389.15,53.18,390.16,56.14,390.16,60Zm-1.85.07q0-5.23-2.65-7.88c-1.77-1.76-4.38-2.64-7.81-2.64h-4.48V71h4Q388.32,71,388.31,60.11Z"/><path class="cls-2" d="M402.1,72.78a7.9,7.9,0,0,1-6.16-2.43,9.77,9.77,0,0,1-2.2-6.81,10.63,10.63,0,0,1,2.13-6.94A7,7,0,0,1,401.62,54a6.21,6.21,0,0,1,5,2.23,9.19,9.19,0,0,1,1.85,6.07v1.33h-13a8.55,8.55,0,0,0,1.74,5.7,6.13,6.13,0,0,0,4.89,2,15.58,15.58,0,0,0,2.72-.21,16.81,16.81,0,0,0,3-.94v1.5a13,13,0,0,1-2.84.91A15.74,15.74,0,0,1,402.1,72.78Zm-.48-17.32a5.41,5.41,0,0,0-4.2,1.72,8.12,8.12,0,0,0-1.85,5h11.19a7.9,7.9,0,0,0-1.36-4.92A4.51,4.51,0,0,0,401.62,55.46Z"/><path class="cls-2" d="M421.12,72.78a6.62,6.62,0,0,1-6.1-3.13h-.11l0,1.4q.06,1.23.06,2.7v6.9h-1.65V54.34h1.4l.32,2.58h.1a6.54,6.54,0,0,1,6-2.93,6.71,6.71,0,0,1,5.59,2.41c1.28,1.6,1.93,3.94,1.93,7s-.68,5.29-2,6.92A6.77,6.77,0,0,1,421.12,72.78Zm0-1.46a5,5,0,0,0,4.3-2.07,9.55,9.55,0,0,0,1.53-5.78q0-8-5.77-8a5.75,5.75,0,0,0-4.64,1.74Q415,59,415,62.9v.54q0,4.25,1.43,6.06C417.4,70.71,418.94,71.32,421.09,71.32Z"/><path class="cls-2" d="M444.17,72.45l-.41-2.87h-.14a8.65,8.65,0,0,1-2.8,2.48,7.55,7.55,0,0,1-3.41.72,5.9,5.9,0,0,1-4.15-1.36,4.9,4.9,0,0,1-1.48-3.79A4.65,4.65,0,0,1,434,63.52,12,12,0,0,1,440.37,62l3.45-.1v-1.2a6.17,6.17,0,0,0-1.05-3.9,4.08,4.08,0,0,0-3.38-1.31,11.23,11.23,0,0,0-5.21,1.4l-.62-1.44a13.87,13.87,0,0,1,5.9-1.4,5.87,5.87,0,0,1,4.45,1.55,6.8,6.8,0,0,1,1.48,4.83V72.45Zm-6.66-1.17A5.76,5.76,0,0,0,443.76,65V63.24l-3.17.13a12,12,0,0,0-5.44,1.19,3.43,3.43,0,0,0-1.62,3.14,3.36,3.36,0,0,0,1,2.64A4.21,4.21,0,0,0,437.51,71.28Z"/><path class="cls-2" d="M459,54a14.73,14.73,0,0,1,2.46.23l-.31,1.59a9.63,9.63,0,0,0-2.35-.29,4.56,4.56,0,0,0-3.8,2,8,8,0,0,0-1.48,5v10h-1.65V54.34h1.4l.16,3.27h.12a7.64,7.64,0,0,1,2.38-2.81A5.6,5.6,0,0,1,459,54Z"/><path class="cls-2" d="M470.27,71.32a12.24,12.24,0,0,0,2.73-.27v1.33a8.65,8.65,0,0,1-2.77.4,4.52,4.52,0,0,1-3.54-1.28,6,6,0,0,1-1.14-4V55.77h-2.68v-1l2.68-.75.83-4.1h.85v4.38h5.32v1.43h-5.32V67.24a5.24,5.24,0,0,0,.74,3.08A2.67,2.67,0,0,0,470.27,71.32Z"/><path class="cls-2" d="M499.71,72.45V60.57a5.9,5.9,0,0,0-1-3.86,3.92,3.92,0,0,0-3.16-1.22A5.18,5.18,0,0,0,491.39,57a7.25,7.25,0,0,0-1.33,4.82V72.45h-1.68V60.07q0-4.57-4.2-4.58A4.94,4.94,0,0,0,480,57.15c-.86,1.1-1.3,2.87-1.3,5.3v10h-1.65V54.34h1.37l.35,2.48h.1A5.23,5.23,0,0,1,481,54.73a6.4,6.4,0,0,1,3.05-.74c2.85,0,4.69,1.07,5.5,3.22h.06A6.14,6.14,0,0,1,492,54.82a6.86,6.86,0,0,1,3.39-.83,5.85,5.85,0,0,1,4.45,1.58c1,1.06,1.48,2.74,1.48,5V72.45Z"/><path class="cls-2" d="M515.2,72.78A7.9,7.9,0,0,1,509,70.35a9.77,9.77,0,0,1-2.2-6.81A10.63,10.63,0,0,1,509,56.6,7,7,0,0,1,514.71,54a6.22,6.22,0,0,1,5,2.23,9.24,9.24,0,0,1,1.85,6.07v1.33h-13a8.55,8.55,0,0,0,1.74,5.7,6.13,6.13,0,0,0,4.89,2,15.58,15.58,0,0,0,2.72-.21,17.07,17.07,0,0,0,3-.94v1.5a13,13,0,0,1-2.84.91A15.74,15.74,0,0,1,515.2,72.78Zm-.49-17.32a5.4,5.4,0,0,0-4.19,1.72,8.06,8.06,0,0,0-1.85,5h11.19a7.9,7.9,0,0,0-1.36-4.92A4.53,4.53,0,0,0,514.71,55.46Z"/><path class="cls-2" d="M539.78,72.45V60.71a5.72,5.72,0,0,0-1.15-4,4.61,4.61,0,0,0-3.56-1.24,6.2,6.2,0,0,0-4.76,1.64c-1,1.1-1.51,2.87-1.51,5.32v10h-1.65V54.34h1.4l.32,2.48h.1c1.18-1.88,3.27-2.83,6.28-2.83q6.16,0,6.16,6.61V72.45Z"/><path class="cls-2" d="M552.74,71.32a12.11,12.11,0,0,0,2.73-.27v1.33a8.63,8.63,0,0,1-2.76.4,4.52,4.52,0,0,1-3.54-1.28,6,6,0,0,1-1.14-4V55.77h-2.69v-1l2.69-.75.83-4.1h.85v4.38H555v1.43h-5.31V67.24a5.24,5.24,0,0,0,.73,3.08A2.69,2.69,0,0,0,552.74,71.32Z"/><g id="Group-7"><g id="Group-3"><path id="Fill-1" class="cls-3" d="M42.61,27.59H36a5.74,5.74,0,1,0,0,11.48h4c8.86,0,15.11,5.25,15.11,14.59,0,10.16-7,14.59-15.25,14.59H36A5.79,5.79,0,0,0,30.2,74h0A5.79,5.79,0,0,0,36,79.73h6.57c14.69,0,26.92-11.41,26.92-26.07S57.37,27.59,42.61,27.59"/></g><g id="Group-6"><path id="Fill-4" class="cls-4" d="M31.51,6.62h6.58a5.79,5.79,0,0,1,5.83,5.74h0a5.79,5.79,0,0,1-5.83,5.74H34c-8.85,0-15.11,5.26-15.11,14.59,0,10.17,7,14.59,15.25,14.59h3.91A5.79,5.79,0,0,1,43.92,53h0a5.79,5.79,0,0,1-5.83,5.74H31.51C16.82,58.76,4.6,47.35,4.6,32.69S16.75,6.62,31.51,6.62"/></g></g></svg>